G04 start of page 5 for group 3 idx 1 *
G04 Title: (unknown), solder *
G04 Creator: pcb 20140316 *
G04 CreationDate: Thu 02 Jul 2020 08:39:24 PM GMT UTC *
G04 For: railfan *
G04 Format: Gerber/RS-274X *
G04 PCB-Dimensions (mil): 4000.00 2950.00 *
G04 PCB-Coordinate-Origin: lower left *
%MOIN*%
%FSLAX25Y25*%
%LNBOTTOM*%
%ADD99C,0.1280*%
%ADD98C,0.0480*%
%ADD97C,0.1285*%
%ADD96C,0.0550*%
%ADD95C,0.0630*%
%ADD94C,0.0120*%
%ADD93C,0.0280*%
%ADD92C,0.0700*%
%ADD91C,0.0800*%
%ADD90C,0.1440*%
%ADD89C,0.2937*%
%ADD88C,0.2137*%
%ADD87C,0.0900*%
%ADD86C,0.0001*%
%ADD85C,0.0830*%
%ADD84C,0.0300*%
%ADD83C,0.0100*%
G54D83*X311000Y208000D02*X336000D01*
X290000Y193500D02*Y210000D01*
X336000Y208000D02*X340500Y203500D01*
X360500D01*
X362000Y202000D01*
X338500Y188500D02*X353500D01*
X356000Y190500D02*X293000D01*
X290000Y193500D01*
X305000Y220000D02*X336500Y251500D01*
X331200Y241700D02*X338500D01*
X302500Y217000D02*X306500D01*
X331200Y241700D01*
X269500Y147000D02*X273000Y143500D01*
X306000Y166500D02*Y134500D01*
X319000Y111500D02*X282500Y148000D01*
X314000Y163500D02*Y134500D01*
X309500Y102000D02*Y93500D01*
X324000Y128500D02*Y160000D01*
X314000Y82000D02*X255000D01*
X285000Y95000D02*X287000Y97000D01*
X259500Y93000D02*X289500D01*
X291500Y95000D01*
X287000Y97000D02*Y102000D01*
X291500Y95000D02*Y102000D01*
X305000Y93500D02*Y102000D01*
X335500Y145500D02*X357000D01*
X340500Y140500D02*X363500D01*
X365000Y142000D01*
X357000Y145500D02*X359500Y148000D01*
X314000Y134500D02*X321500Y127000D01*
X306000Y134500D02*X316500Y124000D01*
X329500D01*
X324000Y128500D02*X325500Y127000D01*
X331600Y131600D02*X340500Y140500D01*
X329500Y124000D02*X332500Y127000D01*
X329000Y131600D02*X331600D01*
X319000Y111500D02*X356500D01*
X358000Y113000D02*Y121500D01*
X356500Y111500D02*X358000Y113000D01*
X357500Y90000D02*Y49500D01*
X361500Y92500D02*Y52500D01*
X353500Y188500D02*X356500Y185500D01*
X359500Y148000D02*Y187000D01*
X356000Y190500D01*
X362000Y143500D02*Y202000D01*
X365000Y142000D02*Y166000D01*
X338500Y188500D02*X324500Y174500D01*
X323000Y168000D02*X335000D01*
X329000Y151500D02*X334500Y157000D01*
X351000D01*
X352500Y155500D01*
X323500Y177500D02*X311500D01*
X308000Y169500D02*X314000Y163500D01*
X324000Y160000D02*X326500Y162500D01*
X324500Y172500D02*X326000Y171000D01*
X292500Y174500D02*X324500D01*
X295500Y172500D02*X293500Y171500D01*
X291000Y176500D02*X305500D01*
X309500Y180500D01*
X295500Y172500D02*X324500D01*
X287000Y182500D02*X298500D01*
X287000Y179500D02*X295500D01*
X218000Y155500D02*X239500D01*
X240500Y186500D02*X247000Y180000D01*
X211500Y140500D02*X227500Y124500D01*
X242500D01*
Y128500D02*X232500D01*
X211500Y149500D01*
Y154500D01*
G54D84*X230500Y114500D02*X207500Y137500D01*
G54D83*X230000Y109500D02*X204500Y135000D01*
X229000Y107500D02*X202500Y134000D01*
G54D84*X207500Y137500D02*Y168500D01*
G54D83*X202500Y134000D02*Y228000D01*
X201000Y229500D01*
X204500Y135000D02*Y228000D01*
X206000Y229500D01*
G54D84*X207500Y168500D02*X214000Y175000D01*
Y220000D01*
X230500Y114500D02*X248500D01*
G54D83*X246000Y109500D02*X230000D01*
X245000Y107500D02*X229000D01*
X240500Y177500D02*X259000D01*
X266500Y170000D01*
X247000Y180000D02*X260000D01*
X269500Y170500D01*
X266500Y170000D02*Y150453D01*
X269500Y170500D02*Y147000D01*
X273000Y153500D02*Y170500D01*
X282500Y148000D02*Y165500D01*
X246000Y190000D02*X249000Y187000D01*
X258500Y189000D02*X257500Y190000D01*
X255000D01*
X249000Y187000D02*X279500D01*
X287000Y179500D01*
Y182500D02*X280500Y189000D01*
X258500D01*
X288500Y174000D02*X276500D01*
X273000Y170500D01*
X290000Y172000D02*X292500Y174500D01*
X288500Y174000D02*X291000Y176500D01*
X290000Y172000D02*X287500Y171000D01*
G54D84*X271500Y116500D02*X261000Y106000D01*
X271500Y116500D02*X277000D01*
G54D83*X274500Y129500D02*X257500Y112500D01*
G54D84*X248500Y114500D02*X257000Y106000D01*
X261000D01*
G54D83*X246000Y109500D02*X260500Y95000D01*
X285000D01*
X245000Y107500D02*X259500Y93000D01*
X39000Y68500D02*X241500D01*
X255000Y82000D01*
G54D85*X94400Y265000D03*
X81000D03*
X94400Y226000D03*
X81000D03*
G54D86*G36*
X34500Y231000D02*Y222000D01*
X43500D01*
Y231000D01*
X34500D01*
G37*
G54D87*X39000Y206500D03*
G54D88*X45000Y262500D03*
G54D86*G36*
X34500Y113000D02*Y104000D01*
X43500D01*
Y113000D01*
X34500D01*
G37*
G54D87*X39000Y186500D03*
Y88500D03*
Y68500D03*
G54D88*X45000Y32500D03*
G54D89*X285000D03*
Y262500D03*
G54D86*G36*
X246500Y266000D02*Y258000D01*
X254500D01*
Y266000D01*
X246500D01*
G37*
G54D90*X260500Y274500D03*
G54D91*X230500Y262000D03*
G54D90*X220500Y274500D03*
G54D86*G36*
X188500Y267500D02*Y259500D01*
X196500D01*
Y267500D01*
X188500D01*
G37*
G54D91*X172500Y263500D03*
G54D92*X253000Y239500D03*
X248000Y249500D03*
X238000D03*
X228000D03*
X243000Y239500D03*
X233000D03*
G54D93*X381000Y203500D03*
X384500D03*
X340500D03*
X311000Y208000D03*
X278500Y199000D03*
X306000Y197500D03*
X309500Y180500D03*
X298500Y182500D03*
X295500Y179500D03*
X293500Y199000D03*
Y202500D03*
X302500Y217000D03*
X305000Y220000D03*
X310500Y197500D03*
X315000D03*
X323000D03*
X327000D03*
X331043Y214000D03*
X282500Y165500D03*
X326500Y162500D03*
X296400Y169500D03*
X287500Y171000D03*
X317500Y169500D03*
X323000Y168000D03*
X326000Y171000D03*
X335000Y168000D03*
X347500D03*
X329000Y151500D03*
X352500Y155500D03*
X352000Y148500D03*
X377500Y156000D03*
X362000Y143500D03*
X365000Y166000D03*
X369000D03*
X187500Y84000D03*
X178500D03*
X174000D03*
X165000D03*
X149500Y73900D03*
Y78900D03*
X144500D03*
X126500D03*
X131500D03*
X126500Y83900D03*
X131500D03*
Y73900D03*
X149500Y83900D03*
X144500D03*
X88500D03*
X83500D03*
X65500D03*
X70500D03*
X144500Y73900D03*
X88500D03*
X83500D03*
X65500D03*
X70500D03*
X126500D03*
X88500Y78900D03*
X83500D03*
X65500D03*
X70500D03*
X180000Y27600D03*
Y22600D03*
Y17600D03*
X175000Y27600D03*
Y22600D03*
Y17600D03*
X119000Y27600D03*
X157000D03*
X162000D03*
X119000Y22600D03*
X157000D03*
X162000D03*
X119000Y17600D03*
X114000D03*
X96000D03*
X101000D03*
X157000D03*
X162000D03*
X114000Y27600D03*
X96000D03*
X101000D03*
X114000Y22600D03*
X96000D03*
X101000D03*
X236500Y100500D03*
Y97000D03*
Y93500D03*
Y86500D03*
X242500Y124500D03*
Y128500D03*
X236500Y83000D03*
Y79500D03*
X328500Y98500D03*
X324500D03*
X320500D03*
X309500Y102000D03*
X300500Y98000D03*
Y101000D03*
X305000Y93500D03*
X309500D03*
X305000Y102000D03*
X314000Y82000D03*
X334000Y139000D03*
X354000Y130500D03*
X350500D03*
X358000Y121500D03*
X335500Y145500D03*
X333500Y151500D03*
X336000Y154000D03*
X356500Y185500D03*
X372500D03*
X376000D03*
X321500Y127000D03*
X325500D03*
X329000Y131600D03*
X332500Y127000D03*
X323500Y177500D03*
X258000Y167000D03*
Y159500D03*
X279000Y161000D03*
X266500Y150453D03*
X273000Y143500D03*
Y153500D03*
X293500Y171500D03*
X308000Y169500D03*
X306000Y166500D03*
X311500Y177500D03*
X274000Y199000D03*
X283000D03*
X274000Y225000D03*
X283000D03*
X290000Y210000D03*
X304000Y236000D03*
Y232000D03*
X287000Y102000D03*
X272000Y98500D03*
X276000D03*
X280000D03*
X291500Y102000D03*
X277000Y116500D03*
X273500D03*
X257500Y112500D03*
X274500Y129500D03*
X357500Y49500D03*
X361500Y52500D03*
X351000Y103500D03*
X369000Y71000D03*
Y37000D03*
X354500Y103500D03*
X357500Y83500D03*
X361500Y86500D03*
X357500Y90000D03*
X361500Y92500D03*
X357000Y261000D03*
X338500Y241700D03*
X336500Y251500D03*
X206000Y229500D03*
X201000D03*
X214000Y216500D03*
Y220000D03*
X189000Y213500D03*
X179000D03*
X169000D03*
X164000D03*
X156500D03*
X189000Y218000D03*
Y222500D03*
X179000D03*
X169000D03*
X164000D03*
X156500D03*
X179000Y218000D03*
X169000D03*
X164000D03*
X156500D03*
X236500Y194500D03*
X218000Y155500D03*
X211500Y140500D03*
Y154500D03*
X236500Y198000D03*
X239500Y155500D03*
X236500Y201500D03*
Y208500D03*
Y212000D03*
Y215500D03*
X240500Y177500D03*
X246000Y190000D03*
X255000D03*
X240500Y186500D03*
X255000Y206000D03*
X246000D03*
X278500Y225000D03*
X258000Y170500D03*
X261500D03*
X258000Y163000D03*
X261500D03*
Y167000D03*
Y159500D03*
X256000Y143000D03*
X259500D03*
X263000D03*
Y146500D03*
X259500D03*
X189000Y209000D03*
X179000D03*
X250500Y206000D03*
X123500Y209000D03*
Y213500D03*
X128500Y209000D03*
Y213500D03*
X133500Y209000D03*
Y213500D03*
X123500Y222500D03*
Y218000D03*
X128500Y222500D03*
Y218000D03*
X133500Y222500D03*
Y218000D03*
X169000Y209000D03*
X164000D03*
X156500D03*
X151500D03*
X146500D03*
X151500Y213500D03*
X146500D03*
X151500Y218000D03*
X146500D03*
X151500Y222500D03*
X146500D03*
G54D94*G54D95*G54D96*G54D97*G54D96*G54D97*G54D98*G54D99*G54D98*G54D99*G54D98*G54D84*M02*
