G04 start of page 12 for group -4015 idx -4015 *
G04 Title: (unknown), toppaste *
G04 Creator: pcb 20140316 *
G04 CreationDate: Thu 02 Jul 2020 08:39:24 PM GMT UTC *
G04 For: railfan *
G04 Format: Gerber/RS-274X *
G04 PCB-Dimensions (mil): 4000.00 2950.00 *
G04 PCB-Coordinate-Origin: lower left *
%MOIN*%
%FSLAX25Y25*%
%LNTOPPASTE*%
%ADD159R,0.0470X0.0470*%
%ADD158R,0.0472X0.0472*%
%ADD157R,0.0236X0.0236*%
%ADD156R,0.0167X0.0167*%
%ADD155R,0.0787X0.0787*%
%ADD154R,0.0098X0.0098*%
%ADD153R,0.0360X0.0360*%
%ADD152R,0.0512X0.0512*%
%ADD151R,0.0709X0.0709*%
%ADD150C,0.0001*%
%ADD149R,0.0157X0.0157*%
%ADD148R,0.0197X0.0197*%
%ADD147R,0.2100X0.2100*%
%ADD146R,0.2080X0.2080*%
%ADD145R,0.0430X0.0430*%
G54D145*X107500Y53000D02*Y44000D01*
Y27500D02*Y18400D01*
X168500Y53000D02*Y44000D01*
Y27500D02*Y18400D01*
X138000Y57500D02*Y48500D01*
Y83100D02*Y74000D01*
X77000Y57500D02*Y48500D01*
Y83100D02*Y74000D01*
G54D146*X88900Y149600D02*Y145400D01*
G54D147*X175300Y127500D02*X176300D01*
X175300Y167500D02*X176300D01*
G54D148*X211000Y86555D02*Y85571D01*
X206000Y86555D02*Y85571D01*
X201000Y86555D02*Y85571D01*
X196000Y86555D02*Y85571D01*
G54D149*X206000Y109626D02*Y108248D01*
X201000Y109626D02*Y108248D01*
X196000Y109626D02*Y108248D01*
X211000Y109626D02*Y108248D01*
G54D150*G36*
X203894Y94547D02*Y88642D01*
X209799D01*
Y94547D01*
X203894D01*
G37*
G36*
Y101240D02*Y95335D01*
X209799D01*
Y101240D01*
X203894D01*
G37*
G36*
X197201D02*Y95335D01*
X203106D01*
Y101240D01*
X197201D01*
G37*
G36*
Y94547D02*Y88642D01*
X203106D01*
Y94547D01*
X197201D01*
G37*
G54D148*X195571Y160000D02*X196555D01*
X195571Y165000D02*X196555D01*
X195571Y170000D02*X196555D01*
X195571Y175000D02*X196555D01*
G54D149*X218248Y165000D02*X219626D01*
X218248Y170000D02*X219626D01*
X218248Y175000D02*X219626D01*
X218248Y160000D02*X219626D01*
G54D150*G36*
X198642Y167106D02*Y161201D01*
X204547D01*
Y167106D01*
X198642D01*
G37*
G36*
X205335D02*Y161201D01*
X211240D01*
Y167106D01*
X205335D01*
G37*
G36*
Y173799D02*Y167894D01*
X211240D01*
Y173799D01*
X205335D01*
G37*
G36*
X198642D02*Y167894D01*
X204547D01*
Y173799D01*
X198642D01*
G37*
G54D148*X195571Y120000D02*X196555D01*
X195571Y125000D02*X196555D01*
X195571Y130000D02*X196555D01*
X195571Y135000D02*X196555D01*
G54D149*X218248Y125000D02*X219626D01*
X218248Y130000D02*X219626D01*
X218248Y135000D02*X219626D01*
X218248Y120000D02*X219626D01*
G54D150*G36*
X198642Y127106D02*Y121201D01*
X204547D01*
Y127106D01*
X198642D01*
G37*
G36*
X205335D02*Y121201D01*
X211240D01*
Y127106D01*
X205335D01*
G37*
G36*
Y133799D02*Y127894D01*
X211240D01*
Y133799D01*
X205335D01*
G37*
G36*
X198642D02*Y127894D01*
X204547D01*
Y133799D01*
X198642D01*
G37*
G54D148*X196000Y209429D02*Y208445D01*
X201000Y209429D02*Y208445D01*
X206000Y209429D02*Y208445D01*
X211000Y209429D02*Y208445D01*
G54D149*X201000Y186752D02*Y185374D01*
X206000Y186752D02*Y185374D01*
X211000Y186752D02*Y185374D01*
X196000Y186752D02*Y185374D01*
G54D150*G36*
X197201Y206358D02*Y200453D01*
X203106D01*
Y206358D01*
X197201D01*
G37*
G36*
Y199665D02*Y193760D01*
X203106D01*
Y199665D01*
X197201D01*
G37*
G36*
X203894D02*Y193760D01*
X209799D01*
Y199665D01*
X203894D01*
G37*
G36*
Y206358D02*Y200453D01*
X209799D01*
Y206358D01*
X203894D01*
G37*
G54D151*X200744Y218476D02*X206256D01*
X200744Y240524D02*X206256D01*
G54D152*X219595Y214755D02*Y209245D01*
X231405Y214755D02*Y209245D01*
X219595Y200755D02*Y195245D01*
X231405Y200755D02*Y195245D01*
G54D145*X140000Y250200D02*Y240800D01*
Y218400D02*Y208900D01*
G54D152*X170245Y239405D02*X175755D01*
X170245Y227595D02*X175755D01*
X183745Y239405D02*X189255D01*
X183745Y227595D02*X189255D01*
X219595Y85755D02*Y80245D01*
X231405Y85755D02*Y80245D01*
X219595Y99755D02*Y94245D01*
X231405Y99755D02*Y94245D01*
G54D151*X200744Y54476D02*X206256D01*
X200744Y76524D02*X206256D01*
G54D152*X180245Y67095D02*X185755D01*
X180245Y78905D02*X185755D01*
X166745Y67095D02*X172255D01*
X166745Y78905D02*X172255D01*
X217607Y143957D02*X218393D01*
X217607Y151043D02*X218393D01*
X236043Y186893D02*Y186107D01*
X228957Y186893D02*Y186107D01*
X236043Y177893D02*Y177107D01*
X228957Y177893D02*Y177107D01*
X223957Y110393D02*Y109607D01*
X231043Y110393D02*Y109607D01*
G54D153*X240000Y133600D02*Y132400D01*
X252900Y133600D02*Y132400D01*
X240000Y120600D02*Y119400D01*
X252900Y120600D02*Y119400D01*
G54D152*X262607Y130457D02*X263393D01*
X262607Y137543D02*X263393D01*
X262607Y115500D02*X263393D01*
X262607Y122586D02*X263393D01*
X245607Y178457D02*X246393D01*
X245607Y185543D02*X246393D01*
X245607Y194457D02*X246393D01*
X245607Y201543D02*X246393D01*
X254607Y178457D02*X255393D01*
X254607Y185543D02*X255393D01*
X254607Y194457D02*X255393D01*
X254607Y201543D02*X255393D01*
G54D151*X252524Y167756D02*Y162244D01*
X230476Y167756D02*Y162244D01*
G54D152*X298957Y212393D02*Y211607D01*
X306043Y212393D02*Y211607D01*
X299543Y225393D02*Y224607D01*
X292457Y225393D02*Y224607D01*
X299543Y234393D02*Y233607D01*
X292457Y234393D02*Y233607D01*
X315543Y225393D02*Y224607D01*
X308457Y225393D02*Y224607D01*
X315543Y234393D02*Y233607D01*
X308457Y234393D02*Y233607D01*
X272245Y121405D02*X277755D01*
X272245Y109595D02*X277755D01*
X313607Y113543D02*X314393D01*
X313607Y106457D02*X314393D01*
X304607Y113543D02*X305393D01*
X304607Y106457D02*X305393D01*
X313043Y122393D02*Y121607D01*
X305957Y122393D02*Y121607D01*
X295607Y113543D02*X296393D01*
X295607Y106457D02*X296393D01*
X286607Y113543D02*X287393D01*
X286607Y106457D02*X287393D01*
X295043Y122393D02*Y121607D01*
X287957Y122393D02*Y121607D01*
X340457Y144393D02*Y143607D01*
X347543Y144393D02*Y143607D01*
X340457Y135393D02*Y134607D01*
X347543Y135393D02*Y134607D01*
Y153393D02*Y152607D01*
X340457Y153393D02*Y152607D01*
X352043Y181393D02*Y180607D01*
X344957Y181393D02*Y180607D01*
X352043Y190393D02*Y189607D01*
X344957Y190393D02*Y189607D01*
X360957Y190393D02*Y189607D01*
X368043Y190393D02*Y189607D01*
Y181393D02*Y180607D01*
X360957Y181393D02*Y180607D01*
X360607Y199957D02*X361393D01*
X360607Y207043D02*X361393D01*
X352043Y208393D02*Y207607D01*
X344957Y208393D02*Y207607D01*
X369957Y208393D02*Y207607D01*
X377043Y208393D02*Y207607D01*
Y199393D02*Y198607D01*
X369957Y199393D02*Y198607D01*
X352043Y199393D02*Y198607D01*
X344957Y199393D02*Y198607D01*
X282607Y187457D02*X283393D01*
X282607Y194543D02*X283393D01*
X273607D02*X274393D01*
X273607Y187457D02*X274393D01*
X282607Y213457D02*X283393D01*
X282607Y220543D02*X283393D01*
X274957Y205393D02*Y204607D01*
X282043Y205393D02*Y204607D01*
X273607Y213457D02*X274393D01*
X273607Y220543D02*X274393D01*
X284043Y231893D02*Y231107D01*
X276957Y231893D02*Y231107D01*
G54D154*X322701Y161772D02*Y160000D01*
X320732Y161772D02*Y155669D01*
X318764Y161772D02*Y155669D01*
X316795Y161772D02*Y155669D01*
X314827Y161772D02*Y155669D01*
X312858Y161772D02*Y155669D01*
X310890Y161772D02*Y155669D01*
X308921Y161772D02*Y155669D01*
X306953Y161772D02*Y155669D01*
X304984Y161772D02*Y155669D01*
X303016Y161772D02*Y155669D01*
X301047Y161772D02*Y160000D01*
X299079Y161772D02*Y160000D01*
X297110Y161772D02*Y160000D01*
X295142Y161772D02*Y160000D01*
X293173Y161772D02*Y160000D01*
X291205Y161772D02*Y160000D01*
X289236Y161772D02*Y160000D01*
X287268Y161772D02*Y160000D01*
X285299Y161772D02*Y160000D01*
X281854Y158327D02*X283626D01*
X281854Y156358D02*X283626D01*
X281854Y154390D02*X283626D01*
X281854Y152421D02*X283626D01*
X281854Y150453D02*X283626D01*
X281854Y146516D02*X283626D01*
X281854Y144547D02*X283626D01*
X281854Y142579D02*X283626D01*
X281854Y138642D02*X283626D01*
X281854Y136673D02*X283626D01*
X285299Y135000D02*Y133228D01*
X289236Y135000D02*Y133228D01*
X291205Y135000D02*Y133228D01*
X293173Y135000D02*Y133228D01*
X295142Y135000D02*Y133228D01*
X299079Y135000D02*Y133228D01*
X301047Y135000D02*Y133228D01*
X303016Y138150D02*Y133228D01*
X306953Y138150D02*Y133228D01*
X308921Y138150D02*Y133228D01*
X310890Y138150D02*Y133228D01*
X314827Y139331D02*Y133228D01*
X316795Y139331D02*Y133228D01*
X318764Y139331D02*Y133228D01*
X320732Y139331D02*Y133228D01*
X322701Y135000D02*Y133228D01*
X324374Y136673D02*X326146D01*
X324374Y138642D02*X326146D01*
X324374Y140610D02*X326146D01*
X324374Y142579D02*X326146D01*
X324374Y144547D02*X326146D01*
X324374Y146516D02*X326146D01*
X324374Y148484D02*X326146D01*
X324374Y150453D02*X326146D01*
X324374Y152421D02*X326146D01*
X324374Y154390D02*X326146D01*
X324374Y156358D02*X326146D01*
X324374Y158327D02*X326146D01*
G54D155*X293173Y147500D02*X314827D01*
G54D152*X322745Y121405D02*X328255D01*
X322745Y109595D02*X328255D01*
X341957Y117393D02*Y116607D01*
X349043Y117393D02*Y116607D01*
X347043Y108393D02*Y107607D01*
X339957Y108393D02*Y107607D01*
Y99393D02*Y98607D01*
X347043Y99393D02*Y98607D01*
X349043Y126393D02*Y125607D01*
X341957Y126393D02*Y125607D01*
X306043Y203393D02*Y202607D01*
X298957Y203393D02*Y202607D01*
X314607Y185457D02*X315393D01*
X314607Y192543D02*X315393D01*
X305607D02*X306393D01*
X305607Y185457D02*X306393D01*
X294107Y187457D02*X294893D01*
X294107Y194543D02*X294893D01*
X323607Y185457D02*X324393D01*
X323607Y192543D02*X324393D01*
X323607Y202457D02*X324393D01*
X323607Y209543D02*X324393D01*
X331043Y219393D02*Y218607D01*
X323957Y219393D02*Y218607D01*
X250107Y150043D02*X250893D01*
X250107Y142957D02*X250893D01*
X241107Y150043D02*X241893D01*
X241107Y142957D02*X241893D01*
X347543Y163393D02*Y162607D01*
X340457Y163393D02*Y162607D01*
G54D156*X350413Y83425D02*X352283D01*
X350413Y86575D02*X352283D01*
X343717D02*X345587D01*
X343717Y83425D02*X345587D01*
G54D157*X367630Y75094D02*X371370D01*
X367630Y79031D02*X371370D01*
X367630Y82969D02*X371370D01*
X367630Y86906D02*X371370D01*
G54D158*X383575Y69976D02*X385937D01*
X383575Y92024D02*X385937D01*
G54D157*X367630Y41094D02*X371370D01*
X367630Y45031D02*X371370D01*
X367630Y48969D02*X371370D01*
X367630Y52906D02*X371370D01*
G54D158*X383575Y35976D02*X385937D01*
X383575Y58024D02*X385937D01*
G54D152*X377107Y160957D02*X377893D01*
X377107Y168043D02*X377893D01*
X367543Y171893D02*Y171107D01*
X360457Y171893D02*Y171107D01*
X367543Y160893D02*Y160107D01*
X360457Y160893D02*Y160107D01*
G54D159*X343600Y241700D02*X348750D01*
X343600Y251500D02*X348750D01*
X343600Y261300D02*X348750D01*
X365250Y241700D02*X370400D01*
X365250Y251500D02*X370400D01*
X365250Y261300D02*X370400D01*
M02*
