G04 start of page 9 for group -4062 idx -4062 *
G04 Title: (unknown), soldermask *
G04 Creator: pcb 20140316 *
G04 CreationDate: Thu 02 Jul 2020 08:39:24 PM GMT UTC *
G04 For: railfan *
G04 Format: Gerber/RS-274X *
G04 PCB-Dimensions (mil): 4000.00 2950.00 *
G04 PCB-Coordinate-Origin: lower left *
%MOIN*%
%FSLAX25Y25*%
%LNBOTTOMMASK*%
%ADD141C,0.0760*%
%ADD140C,0.0860*%
%ADD139C,0.1500*%
%ADD138C,0.2997*%
%ADD137C,0.2197*%
%ADD136C,0.0960*%
%ADD135C,0.0001*%
%ADD134C,0.0890*%
G54D134*X94400Y265000D03*
X81000D03*
X94400Y226000D03*
X81000D03*
G54D135*G36*
X34200Y231300D02*Y221700D01*
X43800D01*
Y231300D01*
X34200D01*
G37*
G54D136*X39000Y206500D03*
G54D137*X45000Y262500D03*
G54D135*G36*
X34200Y113300D02*Y103700D01*
X43800D01*
Y113300D01*
X34200D01*
G37*
G54D136*X39000Y186500D03*
Y88500D03*
Y68500D03*
G54D137*X45000Y32500D03*
G54D138*X285000D03*
Y262500D03*
G54D135*G36*
X246200Y266300D02*Y257700D01*
X254800D01*
Y266300D01*
X246200D01*
G37*
G54D139*X260500Y274500D03*
G54D140*X230500Y262000D03*
G54D139*X220500Y274500D03*
G54D135*G36*
X188200Y267800D02*Y259200D01*
X196800D01*
Y267800D01*
X188200D01*
G37*
G54D140*X172500Y263500D03*
G54D141*X253000Y239500D03*
X248000Y249500D03*
X238000D03*
X228000D03*
X243000Y239500D03*
X233000D03*
M02*
