M48
INCH
T119C0.012
T118C0.030
T117C0.128
T116C0.048
T115C0.129
T114C0.055
T113C0.063
%
T119
X006550Y008390
X006550Y007890
X006550Y007390
X007050Y008390
X007050Y007890
X007050Y007390
X008350Y008390
X008350Y007890
X008350Y007390
X008850Y008390
X008850Y007890
X008850Y007390
X009600Y002760
X009600Y002260
X009600Y001760
X010100Y002760
X010100Y002260
X010100Y001760
X011400Y002760
X011400Y002260
X011400Y001760
X011900Y002760
X011900Y002260
X011900Y001760
X012350Y021900
X012350Y021400
X012350Y020900
X012650Y008390
X012650Y007890
X012650Y007390
X012850Y021900
X012850Y021400
X012850Y020900
X013150Y008390
X013150Y007890
X013150Y007390
X013350Y021900
X013350Y021400
X013350Y020900
X014450Y008390
X014450Y007890
X014450Y007390
X014650Y021900
X014650Y021400
X014650Y020900
X014950Y008390
X014950Y007890
X014950Y007390
X015150Y021900
X015150Y021400
X015150Y020900
X015650Y021900
X015650Y021400
X015650Y020900
X015700Y002760
X015700Y002260
X015700Y001760
X016200Y002760
X016200Y002260
X016200Y001760
X016400Y021900
X016400Y021400
X016400Y020900
X016500Y008400
X016900Y021900
X016900Y021400
X016900Y020900
X017400Y021900
X017400Y021400
X017400Y020900
X017400Y008400
X017500Y002760
X017500Y002260
X017500Y001760
X017850Y008400
X017900Y021900
X017900Y021400
X017900Y020900
X018000Y002760
X018000Y002260
X018000Y001760
X018400Y021900
X018400Y021400
X018400Y020900
X018750Y008400
X018900Y021900
X018900Y021400
X018900Y020900
X020100Y022950
X020600Y022950
X021150Y015450
X021150Y014050
X021400Y022000
X021400Y021650
X021800Y015550
X022550Y002700
X023650Y021550
X023650Y021200
X023650Y020850
X023650Y020150
X023650Y019800
X023650Y019450
X023650Y010050
X023650Y009700
X023650Y009350
X023650Y008650
X023650Y008300
X023650Y007950
X023950Y015550
X024050Y018650
X024050Y017750
X024250Y012850
X024250Y012450
X024600Y020600
X024600Y019000
X025050Y020600
X025450Y003050
X025500Y020600
X025500Y019000
X025600Y014300
X025750Y011250
X025800Y017050
X025800Y016700
X025800Y016300
X025800Y015950
X025950Y014650
X025950Y014300
X026150Y017050
X026150Y016700
X026150Y016300
X026150Y015950
X026200Y009050
X026300Y014650
X026300Y014300
X026500Y009350
X026650Y015045
X026800Y007250
X027150Y007800
X027200Y009850
X027300Y015350
X027300Y014350
X027350Y011650
X027400Y022500
X027400Y019900
X027450Y012950
X027600Y009850
X027700Y011650
X027850Y022500
X027850Y019900
X027900Y016100
X028000Y009850
X028250Y016550
X028300Y022500
X028300Y019900
X028400Y007250
X028400Y006350
X028400Y005450
X028700Y010200
X028700Y009350
X028750Y017100
X028750Y007400
X028850Y007750
X028850Y006750
X029000Y021000
X029150Y010200
X029150Y009050
X029200Y005500
X029200Y005100
X029350Y020250
X029350Y019900
X029350Y017150
X029550Y017950
X029640Y016950
X029850Y018250
X030050Y010100
X030050Y009800
X030350Y007150
X030350Y006800
X030350Y006450
X030400Y023600
X030400Y023200
X030500Y010200
X030500Y009350
X030600Y019750
X030600Y016650
X030800Y016950
X030950Y018050
X030950Y010200
X030950Y009350
X031050Y019750
X031100Y020800
X031150Y017750
X031500Y019750
X031700Y005750
X031750Y016950
X031850Y007750
X031900Y006505
X031950Y007400
X032050Y009850
X032150Y012700
X032300Y019750
X032300Y016800
X032350Y017750
X032450Y009850
X032550Y012700
X032600Y017100
X032650Y016250
X032700Y019750
X032800Y008850
X032850Y009850
X032900Y015150
X032900Y013160
X033104Y021400
X033250Y012700
X033350Y015150
X033400Y013900
X033550Y014550
X033600Y015400
X033646Y006150
X033650Y009300
X033650Y008850
X033800Y004600
X034000Y003913
X034000Y003200
X034000Y002200
X034050Y020350
X035050Y013050
X035100Y010350
X035200Y014850
X035400Y013050
X035450Y010350
X035500Y025350
X035500Y024450
X035550Y004700
X035650Y018550
X035650Y015750
X035800Y012150
X036000Y004700
X036250Y009250
X036350Y015550
X036450Y004700
X036750Y026100
X036750Y023700
X036850Y014550
X036900Y009250
X036922Y007096
X036950Y002146
X036950Y001796
X037150Y014050
X037250Y018550
X037250Y016650
X037550Y026900
X037550Y022900
X037600Y018550
X037850Y005487
X038100Y020350
X038450Y020350
T118
X022800Y024950
X023300Y023950
X023800Y024950
X024300Y023950
X024800Y024950
X025300Y023950
T116
X023050Y026200
X025050Y026200
T114
X003900Y022650
X003900Y020650
X003900Y018650
X003900Y010850
X003900Y008850
X003900Y006850
T113
X008100Y026500
X008100Y022600
X009440Y026500
X009440Y022600
T117
X022050Y027450
X026050Y027450
T115
X004500Y026250
X004500Y003250
X028500Y026250
X028500Y003250
M30
