G04 start of page 2 for group 0 idx 0 *
G04 Title: (unknown), component *
G04 Creator: pcb 20140316 *
G04 CreationDate: Sun 30 Dec 2018 07:41:08 PM GMT UTC *
G04 For: railfan *
G04 Format: Gerber/RS-274X *
G04 PCB-Dimensions (mil): 4000.00 2950.00 *
G04 PCB-Coordinate-Origin: lower left *
%MOIN*%
%FSLAX25Y25*%
%LNTOP*%
%ADD55C,0.0935*%
%ADD54C,0.0390*%
%ADD53C,0.1280*%
%ADD52C,0.0480*%
%ADD51C,0.1285*%
%ADD50C,0.0550*%
%ADD49C,0.0630*%
%ADD48C,0.0120*%
%ADD47C,0.0280*%
%ADD46R,0.0100X0.0100*%
%ADD45R,0.0120X0.0120*%
%ADD44R,0.0500X0.0500*%
%ADD43C,0.0310*%
%ADD42R,0.0472X0.0472*%
%ADD41R,0.0236X0.0236*%
%ADD40R,0.0157X0.0157*%
%ADD39R,0.1417X0.1417*%
%ADD38R,0.1240X0.1240*%
%ADD37R,0.0787X0.0787*%
%ADD36R,0.0098X0.0098*%
%ADD35R,0.0360X0.0360*%
%ADD34R,0.2080X0.2080*%
%ADD33R,0.0430X0.0430*%
%ADD32R,0.2100X0.2100*%
%ADD31R,0.1799X0.1799*%
%ADD30R,0.1476X0.1476*%
%ADD29R,0.0709X0.0709*%
%ADD28R,0.0236X0.0236*%
%ADD27R,0.0512X0.0512*%
%ADD26R,0.0157X0.0157*%
%ADD25R,0.0260X0.0260*%
%ADD24R,0.0197X0.0197*%
%ADD23C,0.0700*%
%ADD22C,0.0800*%
%ADD21C,0.1440*%
%ADD20C,0.2937*%
%ADD19C,0.2137*%
%ADD18C,0.0900*%
%ADD17C,0.0830*%
%ADD16C,0.0200*%
%ADD15C,0.0300*%
%ADD14C,0.0080*%
%ADD13C,0.0400*%
%ADD12C,0.0100*%
%ADD11C,0.0001*%
G54D11*G36*
X199000Y106500D02*Y118000D01*
X213000D01*
Y106500D01*
X199000D01*
G37*
G36*
X164500Y116500D02*Y138500D01*
X213000D01*
Y116500D01*
X164500D01*
G37*
G36*
X194000Y188500D02*X208000D01*
Y177000D01*
X194000D01*
Y188500D01*
G37*
G36*
X164500Y178500D02*X213000D01*
Y156500D01*
X164500D01*
Y178500D01*
G37*
G36*
X43926Y82500D02*X54000D01*
Y54500D01*
X43926D01*
Y65303D01*
X43930Y65305D01*
X44033Y65364D01*
X44125Y65438D01*
X44204Y65525D01*
X44266Y65625D01*
X44511Y66112D01*
X44705Y66622D01*
X44852Y67148D01*
X44951Y67684D01*
X45000Y68227D01*
Y68773D01*
X44951Y69316D01*
X44852Y69852D01*
X44705Y70378D01*
X44511Y70888D01*
X44272Y71378D01*
X44208Y71478D01*
X44128Y71566D01*
X44035Y71640D01*
X43932Y71699D01*
X43926Y71702D01*
Y82500D01*
G37*
G36*
X39002Y82482D02*X39235Y82500D01*
X43926D01*
Y71702D01*
X43821Y71742D01*
X43705Y71766D01*
X43587Y71772D01*
X43468Y71760D01*
X43354Y71729D01*
X43245Y71680D01*
X43146Y71615D01*
X43058Y71535D01*
X42983Y71443D01*
X42924Y71340D01*
X42882Y71229D01*
X42857Y71113D01*
X42851Y70994D01*
X42864Y70876D01*
X42895Y70761D01*
X42946Y70654D01*
X43129Y70289D01*
X43274Y69907D01*
X43384Y69513D01*
X43458Y69111D01*
X43495Y68704D01*
Y68296D01*
X43458Y67889D01*
X43384Y67487D01*
X43274Y67093D01*
X43129Y66711D01*
X42950Y66344D01*
X42900Y66237D01*
X42869Y66123D01*
X42856Y66006D01*
X42862Y65888D01*
X42886Y65772D01*
X42928Y65662D01*
X42987Y65560D01*
X43061Y65468D01*
X43149Y65389D01*
X43248Y65324D01*
X43355Y65276D01*
X43469Y65245D01*
X43587Y65232D01*
X43705Y65238D01*
X43820Y65263D01*
X43926Y65303D01*
Y54500D01*
X39002D01*
Y62500D01*
X39273D01*
X39816Y62549D01*
X40352Y62648D01*
X40878Y62795D01*
X41388Y62989D01*
X41878Y63228D01*
X41978Y63292D01*
X42066Y63372D01*
X42140Y63465D01*
X42199Y63568D01*
X42242Y63679D01*
X42266Y63795D01*
X42272Y63913D01*
X42260Y64032D01*
X42229Y64146D01*
X42180Y64255D01*
X42115Y64354D01*
X42035Y64442D01*
X41943Y64517D01*
X41840Y64576D01*
X41729Y64618D01*
X41613Y64643D01*
X41494Y64649D01*
X41376Y64636D01*
X41261Y64605D01*
X41154Y64554D01*
X40789Y64371D01*
X40407Y64226D01*
X40013Y64116D01*
X39611Y64042D01*
X39204Y64005D01*
X39002D01*
Y72995D01*
X39204D01*
X39611Y72958D01*
X40013Y72884D01*
X40407Y72774D01*
X40789Y72629D01*
X41156Y72450D01*
X41263Y72400D01*
X41377Y72369D01*
X41494Y72356D01*
X41612Y72362D01*
X41728Y72386D01*
X41838Y72428D01*
X41940Y72487D01*
X42032Y72561D01*
X42111Y72649D01*
X42176Y72748D01*
X42224Y72855D01*
X42255Y72969D01*
X42268Y73087D01*
X42262Y73205D01*
X42237Y73320D01*
X42195Y73430D01*
X42136Y73533D01*
X42062Y73625D01*
X41975Y73704D01*
X41875Y73766D01*
X41388Y74011D01*
X40878Y74205D01*
X40352Y74352D01*
X39816Y74451D01*
X39273Y74500D01*
X39002D01*
Y82482D01*
G37*
G36*
X34074Y82500D02*X38765D01*
X39000Y82481D01*
X39002Y82482D01*
Y74500D01*
X38727D01*
X38184Y74451D01*
X37648Y74352D01*
X37122Y74205D01*
X36612Y74011D01*
X36122Y73772D01*
X36022Y73708D01*
X35934Y73628D01*
X35860Y73535D01*
X35801Y73432D01*
X35758Y73321D01*
X35734Y73205D01*
X35728Y73087D01*
X35740Y72968D01*
X35771Y72854D01*
X35820Y72745D01*
X35885Y72646D01*
X35965Y72558D01*
X36057Y72483D01*
X36160Y72424D01*
X36271Y72382D01*
X36387Y72357D01*
X36506Y72351D01*
X36624Y72364D01*
X36739Y72395D01*
X36846Y72446D01*
X37211Y72629D01*
X37593Y72774D01*
X37987Y72884D01*
X38389Y72958D01*
X38796Y72995D01*
X39002D01*
Y64005D01*
X38796D01*
X38389Y64042D01*
X37987Y64116D01*
X37593Y64226D01*
X37211Y64371D01*
X36844Y64550D01*
X36737Y64600D01*
X36623Y64631D01*
X36506Y64644D01*
X36388Y64638D01*
X36272Y64614D01*
X36162Y64572D01*
X36060Y64513D01*
X35968Y64439D01*
X35889Y64351D01*
X35824Y64252D01*
X35776Y64145D01*
X35745Y64031D01*
X35732Y63913D01*
X35738Y63795D01*
X35763Y63680D01*
X35805Y63570D01*
X35864Y63467D01*
X35938Y63375D01*
X36025Y63296D01*
X36125Y63234D01*
X36612Y62989D01*
X37122Y62795D01*
X37648Y62648D01*
X38184Y62549D01*
X38727Y62500D01*
X39002D01*
Y54500D01*
X34074D01*
Y65298D01*
X34179Y65258D01*
X34295Y65234D01*
X34413Y65228D01*
X34532Y65240D01*
X34646Y65271D01*
X34755Y65320D01*
X34854Y65385D01*
X34942Y65465D01*
X35017Y65557D01*
X35076Y65660D01*
X35118Y65771D01*
X35143Y65887D01*
X35149Y66006D01*
X35136Y66124D01*
X35105Y66239D01*
X35054Y66346D01*
X34871Y66711D01*
X34726Y67093D01*
X34616Y67487D01*
X34542Y67889D01*
X34505Y68296D01*
Y68704D01*
X34542Y69111D01*
X34616Y69513D01*
X34726Y69907D01*
X34871Y70289D01*
X35050Y70656D01*
X35100Y70763D01*
X35131Y70877D01*
X35144Y70994D01*
X35138Y71112D01*
X35114Y71228D01*
X35072Y71338D01*
X35013Y71440D01*
X34939Y71532D01*
X34851Y71611D01*
X34752Y71676D01*
X34645Y71724D01*
X34531Y71755D01*
X34413Y71768D01*
X34295Y71762D01*
X34180Y71737D01*
X34074Y71697D01*
Y82500D01*
G37*
G36*
X20000D02*X34074D01*
Y71697D01*
X34070Y71695D01*
X33967Y71636D01*
X33875Y71562D01*
X33796Y71475D01*
X33734Y71375D01*
X33489Y70888D01*
X33295Y70378D01*
X33148Y69852D01*
X33049Y69316D01*
X33000Y68773D01*
Y68227D01*
X33049Y67684D01*
X33148Y67148D01*
X33295Y66622D01*
X33489Y66112D01*
X33728Y65622D01*
X33792Y65522D01*
X33872Y65434D01*
X33965Y65360D01*
X34068Y65301D01*
X34074Y65298D01*
Y54500D01*
X20000D01*
Y82500D01*
G37*
G36*
X59500Y71500D02*Y86500D01*
X190000D01*
Y71500D01*
X59500D01*
G37*
G36*
X90000Y30000D02*X186000D01*
Y15000D01*
X90000D01*
Y30000D01*
G37*
G36*
X210500Y40000D02*X60500D01*
X51500Y49000D01*
X39002D01*
Y62500D01*
X39273D01*
X39816Y62549D01*
X40352Y62648D01*
X40878Y62795D01*
X41388Y62989D01*
X41878Y63228D01*
X41978Y63292D01*
X42066Y63372D01*
X42140Y63465D01*
X42199Y63568D01*
X42242Y63679D01*
X42266Y63795D01*
X42272Y63913D01*
X42260Y64032D01*
X42229Y64146D01*
X42180Y64255D01*
X42115Y64354D01*
X42035Y64442D01*
X41943Y64517D01*
X41840Y64576D01*
X41729Y64618D01*
X41613Y64643D01*
X41494Y64649D01*
X41376Y64636D01*
X41261Y64605D01*
X41154Y64554D01*
X40789Y64371D01*
X40407Y64226D01*
X40013Y64116D01*
X39611Y64042D01*
X39204Y64005D01*
X39002D01*
Y70000D01*
X43239D01*
X43274Y69907D01*
X43384Y69513D01*
X43458Y69111D01*
X43495Y68704D01*
Y68296D01*
X43458Y67889D01*
X43384Y67487D01*
X43274Y67093D01*
X43129Y66711D01*
X42950Y66344D01*
X42900Y66237D01*
X42869Y66123D01*
X42856Y66006D01*
X42862Y65888D01*
X42886Y65772D01*
X42928Y65662D01*
X42987Y65560D01*
X43061Y65468D01*
X43149Y65389D01*
X43248Y65324D01*
X43355Y65276D01*
X43469Y65245D01*
X43587Y65232D01*
X43705Y65238D01*
X43820Y65263D01*
X43930Y65305D01*
X44033Y65364D01*
X44125Y65438D01*
X44204Y65525D01*
X44266Y65625D01*
X44511Y66112D01*
X44705Y66622D01*
X44852Y67148D01*
X44951Y67684D01*
X45000Y68227D01*
Y68773D01*
X44951Y69316D01*
X44852Y69852D01*
X44811Y70000D01*
X196500D01*
Y58500D01*
X210500D01*
Y40000D01*
G37*
G36*
X39002Y49000D02*X38500D01*
X29500Y40000D01*
X20000D01*
Y70000D01*
X33189D01*
X33148Y69852D01*
X33049Y69316D01*
X33000Y68773D01*
Y68227D01*
X33049Y67684D01*
X33148Y67148D01*
X33295Y66622D01*
X33489Y66112D01*
X33728Y65622D01*
X33792Y65522D01*
X33872Y65434D01*
X33965Y65360D01*
X34068Y65301D01*
X34179Y65258D01*
X34295Y65234D01*
X34413Y65228D01*
X34532Y65240D01*
X34646Y65271D01*
X34755Y65320D01*
X34854Y65385D01*
X34942Y65465D01*
X35017Y65557D01*
X35076Y65660D01*
X35118Y65771D01*
X35143Y65887D01*
X35149Y66006D01*
X35136Y66124D01*
X35105Y66239D01*
X35054Y66346D01*
X34871Y66711D01*
X34726Y67093D01*
X34616Y67487D01*
X34542Y67889D01*
X34505Y68296D01*
Y68704D01*
X34542Y69111D01*
X34616Y69513D01*
X34726Y69907D01*
X34761Y70000D01*
X39002D01*
Y64005D01*
X38796D01*
X38389Y64042D01*
X37987Y64116D01*
X37593Y64226D01*
X37211Y64371D01*
X36844Y64550D01*
X36737Y64600D01*
X36623Y64631D01*
X36506Y64644D01*
X36388Y64638D01*
X36272Y64614D01*
X36162Y64572D01*
X36060Y64513D01*
X35968Y64439D01*
X35889Y64351D01*
X35824Y64252D01*
X35776Y64145D01*
X35745Y64031D01*
X35732Y63913D01*
X35738Y63795D01*
X35763Y63680D01*
X35805Y63570D01*
X35864Y63467D01*
X35938Y63375D01*
X36025Y63296D01*
X36125Y63234D01*
X36612Y62989D01*
X37122Y62795D01*
X37648Y62648D01*
X38184Y62549D01*
X38727Y62500D01*
X39002D01*
Y49000D01*
G37*
G36*
X58500Y70000D02*Y68500D01*
X52500D01*
Y74500D01*
X54000D01*
X58500Y70000D01*
G37*
G36*
X222500Y103000D02*Y72500D01*
X193500D01*
Y103000D01*
X222500D01*
G37*
G36*
X228000Y77000D02*Y103000D01*
X239000D01*
Y77000D01*
X228000D01*
G37*
G36*
X216500Y131500D02*X234500D01*
Y118500D01*
X216500D01*
Y131500D01*
G37*
G36*
X110500Y171000D02*Y124000D01*
X65500D01*
Y171000D01*
X110500D01*
G37*
G36*
X237000Y118500D02*X222000D01*
Y173000D01*
X237000D01*
Y118500D01*
G37*
G36*
X43926Y200500D02*X110500D01*
Y172500D01*
X43926D01*
Y183303D01*
X43930Y183305D01*
X44033Y183364D01*
X44125Y183438D01*
X44204Y183525D01*
X44266Y183625D01*
X44511Y184112D01*
X44705Y184622D01*
X44852Y185148D01*
X44951Y185684D01*
X45000Y186227D01*
Y186773D01*
X44951Y187316D01*
X44852Y187852D01*
X44705Y188378D01*
X44511Y188888D01*
X44272Y189378D01*
X44208Y189478D01*
X44128Y189566D01*
X44035Y189640D01*
X43932Y189699D01*
X43926Y189702D01*
Y200500D01*
G37*
G36*
X39002Y200482D02*X39235Y200500D01*
X43926D01*
Y189702D01*
X43821Y189742D01*
X43705Y189766D01*
X43587Y189772D01*
X43468Y189760D01*
X43354Y189729D01*
X43245Y189680D01*
X43146Y189615D01*
X43058Y189535D01*
X42983Y189443D01*
X42924Y189340D01*
X42882Y189229D01*
X42857Y189113D01*
X42851Y188994D01*
X42864Y188876D01*
X42895Y188761D01*
X42946Y188654D01*
X43129Y188289D01*
X43274Y187907D01*
X43384Y187513D01*
X43458Y187111D01*
X43495Y186704D01*
Y186296D01*
X43458Y185889D01*
X43384Y185487D01*
X43274Y185093D01*
X43129Y184711D01*
X42950Y184344D01*
X42900Y184237D01*
X42869Y184123D01*
X42856Y184006D01*
X42862Y183888D01*
X42886Y183772D01*
X42928Y183662D01*
X42987Y183560D01*
X43061Y183468D01*
X43149Y183389D01*
X43248Y183324D01*
X43355Y183276D01*
X43469Y183245D01*
X43587Y183232D01*
X43705Y183238D01*
X43820Y183263D01*
X43926Y183303D01*
Y172500D01*
X39002D01*
Y180500D01*
X39273D01*
X39816Y180549D01*
X40352Y180648D01*
X40878Y180795D01*
X41388Y180989D01*
X41878Y181228D01*
X41978Y181292D01*
X42066Y181372D01*
X42140Y181465D01*
X42199Y181568D01*
X42242Y181679D01*
X42266Y181795D01*
X42272Y181913D01*
X42260Y182032D01*
X42229Y182146D01*
X42180Y182255D01*
X42115Y182354D01*
X42035Y182442D01*
X41943Y182517D01*
X41840Y182576D01*
X41729Y182618D01*
X41613Y182643D01*
X41494Y182649D01*
X41376Y182636D01*
X41261Y182605D01*
X41154Y182554D01*
X40789Y182371D01*
X40407Y182226D01*
X40013Y182116D01*
X39611Y182042D01*
X39204Y182005D01*
X39002D01*
Y190995D01*
X39204D01*
X39611Y190958D01*
X40013Y190884D01*
X40407Y190774D01*
X40789Y190629D01*
X41156Y190450D01*
X41263Y190400D01*
X41377Y190369D01*
X41494Y190356D01*
X41612Y190362D01*
X41728Y190386D01*
X41838Y190428D01*
X41940Y190487D01*
X42032Y190561D01*
X42111Y190649D01*
X42176Y190748D01*
X42224Y190855D01*
X42255Y190969D01*
X42268Y191087D01*
X42262Y191205D01*
X42237Y191320D01*
X42195Y191430D01*
X42136Y191533D01*
X42062Y191625D01*
X41975Y191704D01*
X41875Y191766D01*
X41388Y192011D01*
X40878Y192205D01*
X40352Y192352D01*
X39816Y192451D01*
X39273Y192500D01*
X39002D01*
Y200482D01*
G37*
G36*
X34074Y200500D02*X38765D01*
X39000Y200481D01*
X39002Y200482D01*
Y192500D01*
X38727D01*
X38184Y192451D01*
X37648Y192352D01*
X37122Y192205D01*
X36612Y192011D01*
X36122Y191772D01*
X36022Y191708D01*
X35934Y191628D01*
X35860Y191535D01*
X35801Y191432D01*
X35758Y191321D01*
X35734Y191205D01*
X35728Y191087D01*
X35740Y190968D01*
X35771Y190854D01*
X35820Y190745D01*
X35885Y190646D01*
X35965Y190558D01*
X36057Y190483D01*
X36160Y190424D01*
X36271Y190382D01*
X36387Y190357D01*
X36506Y190351D01*
X36624Y190364D01*
X36739Y190395D01*
X36846Y190446D01*
X37211Y190629D01*
X37593Y190774D01*
X37987Y190884D01*
X38389Y190958D01*
X38796Y190995D01*
X39002D01*
Y182005D01*
X38796D01*
X38389Y182042D01*
X37987Y182116D01*
X37593Y182226D01*
X37211Y182371D01*
X36844Y182550D01*
X36737Y182600D01*
X36623Y182631D01*
X36506Y182644D01*
X36388Y182638D01*
X36272Y182614D01*
X36162Y182572D01*
X36060Y182513D01*
X35968Y182439D01*
X35889Y182351D01*
X35824Y182252D01*
X35776Y182145D01*
X35745Y182031D01*
X35732Y181913D01*
X35738Y181795D01*
X35763Y181680D01*
X35805Y181570D01*
X35864Y181467D01*
X35938Y181375D01*
X36025Y181296D01*
X36125Y181234D01*
X36612Y180989D01*
X37122Y180795D01*
X37648Y180648D01*
X38184Y180549D01*
X38727Y180500D01*
X39002D01*
Y172500D01*
X34074D01*
Y183298D01*
X34179Y183258D01*
X34295Y183234D01*
X34413Y183228D01*
X34532Y183240D01*
X34646Y183271D01*
X34755Y183320D01*
X34854Y183385D01*
X34942Y183465D01*
X35017Y183557D01*
X35076Y183660D01*
X35118Y183771D01*
X35143Y183887D01*
X35149Y184006D01*
X35136Y184124D01*
X35105Y184239D01*
X35054Y184346D01*
X34871Y184711D01*
X34726Y185093D01*
X34616Y185487D01*
X34542Y185889D01*
X34505Y186296D01*
Y186704D01*
X34542Y187111D01*
X34616Y187513D01*
X34726Y187907D01*
X34871Y188289D01*
X35050Y188656D01*
X35100Y188763D01*
X35131Y188877D01*
X35144Y188994D01*
X35138Y189112D01*
X35114Y189228D01*
X35072Y189338D01*
X35013Y189440D01*
X34939Y189532D01*
X34851Y189611D01*
X34752Y189676D01*
X34645Y189724D01*
X34531Y189755D01*
X34413Y189768D01*
X34295Y189762D01*
X34180Y189737D01*
X34074Y189697D01*
Y200500D01*
G37*
G36*
X20000D02*X34074D01*
Y189697D01*
X34070Y189695D01*
X33967Y189636D01*
X33875Y189562D01*
X33796Y189475D01*
X33734Y189375D01*
X33489Y188888D01*
X33295Y188378D01*
X33148Y187852D01*
X33049Y187316D01*
X33000Y186773D01*
Y186227D01*
X33049Y185684D01*
X33148Y185148D01*
X33295Y184622D01*
X33489Y184112D01*
X33728Y183622D01*
X33792Y183522D01*
X33872Y183434D01*
X33965Y183360D01*
X34068Y183301D01*
X34074Y183298D01*
Y172500D01*
X20000D01*
Y200500D01*
G37*
G36*
X110500Y172500D02*X98680D01*
Y223147D01*
X98689Y223156D01*
X98735Y223219D01*
X98966Y223608D01*
X99158Y224017D01*
X99314Y224442D01*
X99431Y224878D01*
X99510Y225323D01*
X99550Y225774D01*
Y226226D01*
X99510Y226677D01*
X99431Y227122D01*
X99314Y227558D01*
X99158Y227983D01*
X98966Y228392D01*
X98739Y228783D01*
X98692Y228847D01*
X98680Y228858D01*
Y234000D01*
X110500D01*
Y172500D01*
G37*
G36*
X98680D02*X94402D01*
Y220850D01*
X94626D01*
X95077Y220890D01*
X95522Y220969D01*
X95958Y221086D01*
X96383Y221242D01*
X96792Y221434D01*
X97183Y221661D01*
X97247Y221708D01*
X97302Y221766D01*
X97347Y221831D01*
X97382Y221902D01*
X97405Y221978D01*
X97415Y222057D01*
X97414Y222136D01*
X97400Y222214D01*
X97374Y222289D01*
X97336Y222359D01*
X97288Y222422D01*
X97231Y222477D01*
X97166Y222522D01*
X97094Y222557D01*
X97019Y222580D01*
X96940Y222591D01*
X96861Y222589D01*
X96783Y222575D01*
X96708Y222549D01*
X96639Y222510D01*
X96326Y222324D01*
X95996Y222169D01*
X95655Y222044D01*
X95303Y221949D01*
X94945Y221886D01*
X94582Y221854D01*
X94402D01*
Y230146D01*
X94582D01*
X94945Y230114D01*
X95303Y230051D01*
X95655Y229956D01*
X95996Y229831D01*
X96326Y229676D01*
X96641Y229493D01*
X96709Y229455D01*
X96784Y229429D01*
X96861Y229415D01*
X96940Y229413D01*
X97018Y229424D01*
X97093Y229447D01*
X97164Y229481D01*
X97228Y229526D01*
X97285Y229580D01*
X97333Y229643D01*
X97370Y229713D01*
X97396Y229787D01*
X97410Y229864D01*
X97411Y229943D01*
X97401Y230021D01*
X97378Y230096D01*
X97344Y230167D01*
X97299Y230232D01*
X97244Y230289D01*
X97181Y230335D01*
X96792Y230566D01*
X96383Y230758D01*
X95958Y230914D01*
X95522Y231031D01*
X95077Y231110D01*
X94626Y231150D01*
X94402D01*
Y234000D01*
X98680D01*
Y228858D01*
X98634Y228902D01*
X98569Y228947D01*
X98498Y228982D01*
X98422Y229005D01*
X98343Y229015D01*
X98264Y229014D01*
X98186Y229000D01*
X98111Y228974D01*
X98041Y228936D01*
X97978Y228888D01*
X97923Y228831D01*
X97878Y228766D01*
X97843Y228694D01*
X97820Y228619D01*
X97809Y228540D01*
X97811Y228461D01*
X97825Y228383D01*
X97851Y228308D01*
X97890Y228239D01*
X98076Y227926D01*
X98231Y227596D01*
X98356Y227255D01*
X98451Y226903D01*
X98514Y226545D01*
X98546Y226182D01*
Y225818D01*
X98514Y225455D01*
X98451Y225097D01*
X98356Y224745D01*
X98231Y224404D01*
X98076Y224074D01*
X97893Y223759D01*
X97855Y223691D01*
X97829Y223616D01*
X97815Y223539D01*
X97813Y223460D01*
X97824Y223382D01*
X97847Y223307D01*
X97881Y223236D01*
X97926Y223172D01*
X97980Y223115D01*
X98043Y223067D01*
X98113Y223030D01*
X98187Y223004D01*
X98264Y222990D01*
X98343Y222989D01*
X98421Y222999D01*
X98496Y223022D01*
X98567Y223056D01*
X98632Y223101D01*
X98680Y223147D01*
Y172500D01*
G37*
G36*
X94402D02*X90120D01*
Y223142D01*
X90166Y223098D01*
X90231Y223053D01*
X90302Y223018D01*
X90378Y222995D01*
X90457Y222985D01*
X90536Y222986D01*
X90614Y223000D01*
X90689Y223026D01*
X90759Y223064D01*
X90822Y223112D01*
X90877Y223169D01*
X90922Y223234D01*
X90957Y223306D01*
X90980Y223381D01*
X90991Y223460D01*
X90989Y223539D01*
X90975Y223617D01*
X90949Y223692D01*
X90910Y223761D01*
X90724Y224074D01*
X90569Y224404D01*
X90444Y224745D01*
X90349Y225097D01*
X90286Y225455D01*
X90254Y225818D01*
Y226182D01*
X90286Y226545D01*
X90349Y226903D01*
X90444Y227255D01*
X90569Y227596D01*
X90724Y227926D01*
X90907Y228241D01*
X90945Y228309D01*
X90971Y228384D01*
X90985Y228461D01*
X90987Y228540D01*
X90976Y228618D01*
X90953Y228693D01*
X90919Y228764D01*
X90874Y228828D01*
X90820Y228885D01*
X90757Y228933D01*
X90687Y228970D01*
X90613Y228996D01*
X90536Y229010D01*
X90457Y229011D01*
X90379Y229001D01*
X90304Y228978D01*
X90233Y228944D01*
X90168Y228899D01*
X90120Y228853D01*
Y234000D01*
X94402D01*
Y231150D01*
X94174D01*
X93723Y231110D01*
X93278Y231031D01*
X92842Y230914D01*
X92417Y230758D01*
X92008Y230566D01*
X91617Y230339D01*
X91553Y230292D01*
X91498Y230234D01*
X91453Y230169D01*
X91418Y230098D01*
X91395Y230022D01*
X91385Y229943D01*
X91386Y229864D01*
X91400Y229786D01*
X91426Y229711D01*
X91464Y229641D01*
X91512Y229578D01*
X91569Y229523D01*
X91634Y229478D01*
X91706Y229443D01*
X91781Y229420D01*
X91860Y229409D01*
X91939Y229411D01*
X92017Y229425D01*
X92092Y229451D01*
X92161Y229490D01*
X92474Y229676D01*
X92804Y229831D01*
X93145Y229956D01*
X93497Y230051D01*
X93855Y230114D01*
X94218Y230146D01*
X94402D01*
Y221854D01*
X94218D01*
X93855Y221886D01*
X93497Y221949D01*
X93145Y222044D01*
X92804Y222169D01*
X92474Y222324D01*
X92159Y222507D01*
X92091Y222545D01*
X92016Y222571D01*
X91939Y222585D01*
X91860Y222587D01*
X91782Y222576D01*
X91707Y222553D01*
X91636Y222519D01*
X91572Y222474D01*
X91515Y222420D01*
X91467Y222357D01*
X91430Y222287D01*
X91404Y222213D01*
X91390Y222136D01*
X91389Y222057D01*
X91399Y221979D01*
X91422Y221904D01*
X91456Y221833D01*
X91501Y221768D01*
X91556Y221711D01*
X91619Y221665D01*
X92008Y221434D01*
X92417Y221242D01*
X92842Y221086D01*
X93278Y220969D01*
X93723Y220890D01*
X94174Y220850D01*
X94402D01*
Y172500D01*
G37*
G36*
X90120D02*X85280D01*
Y223147D01*
X85289Y223156D01*
X85335Y223219D01*
X85566Y223608D01*
X85758Y224017D01*
X85914Y224442D01*
X86031Y224878D01*
X86110Y225323D01*
X86150Y225774D01*
Y226226D01*
X86110Y226677D01*
X86031Y227122D01*
X85914Y227558D01*
X85758Y227983D01*
X85566Y228392D01*
X85339Y228783D01*
X85292Y228847D01*
X85280Y228858D01*
Y234000D01*
X90120D01*
Y228853D01*
X90111Y228844D01*
X90065Y228781D01*
X89834Y228392D01*
X89642Y227983D01*
X89486Y227558D01*
X89369Y227122D01*
X89290Y226677D01*
X89250Y226226D01*
Y225774D01*
X89290Y225323D01*
X89369Y224878D01*
X89486Y224442D01*
X89642Y224017D01*
X89834Y223608D01*
X90061Y223217D01*
X90108Y223153D01*
X90120Y223142D01*
Y172500D01*
G37*
G36*
X85280D02*X81002D01*
Y220850D01*
X81226D01*
X81677Y220890D01*
X82122Y220969D01*
X82558Y221086D01*
X82983Y221242D01*
X83392Y221434D01*
X83783Y221661D01*
X83847Y221708D01*
X83902Y221766D01*
X83947Y221831D01*
X83982Y221902D01*
X84005Y221978D01*
X84015Y222057D01*
X84014Y222136D01*
X84000Y222214D01*
X83974Y222289D01*
X83936Y222359D01*
X83888Y222422D01*
X83831Y222477D01*
X83766Y222522D01*
X83694Y222557D01*
X83619Y222580D01*
X83540Y222591D01*
X83461Y222589D01*
X83383Y222575D01*
X83308Y222549D01*
X83239Y222510D01*
X82926Y222324D01*
X82596Y222169D01*
X82255Y222044D01*
X81903Y221949D01*
X81545Y221886D01*
X81182Y221854D01*
X81002D01*
Y230146D01*
X81182D01*
X81545Y230114D01*
X81903Y230051D01*
X82255Y229956D01*
X82596Y229831D01*
X82926Y229676D01*
X83241Y229493D01*
X83309Y229455D01*
X83384Y229429D01*
X83461Y229415D01*
X83540Y229413D01*
X83618Y229424D01*
X83693Y229447D01*
X83764Y229481D01*
X83828Y229526D01*
X83885Y229580D01*
X83933Y229643D01*
X83970Y229713D01*
X83996Y229787D01*
X84010Y229864D01*
X84011Y229943D01*
X84001Y230021D01*
X83978Y230096D01*
X83944Y230167D01*
X83899Y230232D01*
X83844Y230289D01*
X83781Y230335D01*
X83392Y230566D01*
X82983Y230758D01*
X82558Y230914D01*
X82122Y231031D01*
X81677Y231110D01*
X81226Y231150D01*
X81002D01*
Y234000D01*
X85280D01*
Y228858D01*
X85234Y228902D01*
X85169Y228947D01*
X85098Y228982D01*
X85022Y229005D01*
X84943Y229015D01*
X84864Y229014D01*
X84786Y229000D01*
X84711Y228974D01*
X84641Y228936D01*
X84578Y228888D01*
X84523Y228831D01*
X84478Y228766D01*
X84443Y228694D01*
X84420Y228619D01*
X84409Y228540D01*
X84411Y228461D01*
X84425Y228383D01*
X84451Y228308D01*
X84490Y228239D01*
X84676Y227926D01*
X84831Y227596D01*
X84956Y227255D01*
X85051Y226903D01*
X85114Y226545D01*
X85146Y226182D01*
Y225818D01*
X85114Y225455D01*
X85051Y225097D01*
X84956Y224745D01*
X84831Y224404D01*
X84676Y224074D01*
X84493Y223759D01*
X84455Y223691D01*
X84429Y223616D01*
X84415Y223539D01*
X84413Y223460D01*
X84424Y223382D01*
X84447Y223307D01*
X84481Y223236D01*
X84526Y223172D01*
X84580Y223115D01*
X84643Y223067D01*
X84713Y223030D01*
X84787Y223004D01*
X84864Y222990D01*
X84943Y222989D01*
X85021Y222999D01*
X85096Y223022D01*
X85167Y223056D01*
X85232Y223101D01*
X85280Y223147D01*
Y172500D01*
G37*
G36*
X81002D02*X76720D01*
Y223142D01*
X76766Y223098D01*
X76831Y223053D01*
X76902Y223018D01*
X76978Y222995D01*
X77057Y222985D01*
X77136Y222986D01*
X77214Y223000D01*
X77289Y223026D01*
X77359Y223064D01*
X77422Y223112D01*
X77477Y223169D01*
X77522Y223234D01*
X77557Y223306D01*
X77580Y223381D01*
X77591Y223460D01*
X77589Y223539D01*
X77575Y223617D01*
X77549Y223692D01*
X77510Y223761D01*
X77324Y224074D01*
X77169Y224404D01*
X77044Y224745D01*
X76949Y225097D01*
X76886Y225455D01*
X76854Y225818D01*
Y226182D01*
X76886Y226545D01*
X76949Y226903D01*
X77044Y227255D01*
X77169Y227596D01*
X77324Y227926D01*
X77507Y228241D01*
X77545Y228309D01*
X77571Y228384D01*
X77585Y228461D01*
X77587Y228540D01*
X77576Y228618D01*
X77553Y228693D01*
X77519Y228764D01*
X77474Y228828D01*
X77420Y228885D01*
X77357Y228933D01*
X77287Y228970D01*
X77213Y228996D01*
X77136Y229010D01*
X77057Y229011D01*
X76979Y229001D01*
X76904Y228978D01*
X76833Y228944D01*
X76768Y228899D01*
X76720Y228853D01*
Y234000D01*
X81002D01*
Y231150D01*
X80774D01*
X80323Y231110D01*
X79878Y231031D01*
X79442Y230914D01*
X79017Y230758D01*
X78608Y230566D01*
X78217Y230339D01*
X78153Y230292D01*
X78098Y230234D01*
X78053Y230169D01*
X78018Y230098D01*
X77995Y230022D01*
X77985Y229943D01*
X77986Y229864D01*
X78000Y229786D01*
X78026Y229711D01*
X78064Y229641D01*
X78112Y229578D01*
X78169Y229523D01*
X78234Y229478D01*
X78306Y229443D01*
X78381Y229420D01*
X78460Y229409D01*
X78539Y229411D01*
X78617Y229425D01*
X78692Y229451D01*
X78761Y229490D01*
X79074Y229676D01*
X79404Y229831D01*
X79745Y229956D01*
X80097Y230051D01*
X80455Y230114D01*
X80818Y230146D01*
X81002D01*
Y221854D01*
X80818D01*
X80455Y221886D01*
X80097Y221949D01*
X79745Y222044D01*
X79404Y222169D01*
X79074Y222324D01*
X78759Y222507D01*
X78691Y222545D01*
X78616Y222571D01*
X78539Y222585D01*
X78460Y222587D01*
X78382Y222576D01*
X78307Y222553D01*
X78236Y222519D01*
X78172Y222474D01*
X78115Y222420D01*
X78067Y222357D01*
X78030Y222287D01*
X78004Y222213D01*
X77990Y222136D01*
X77989Y222057D01*
X77999Y221979D01*
X78022Y221904D01*
X78056Y221833D01*
X78101Y221768D01*
X78156Y221711D01*
X78219Y221665D01*
X78608Y221434D01*
X79017Y221242D01*
X79442Y221086D01*
X79878Y220969D01*
X80323Y220890D01*
X80774Y220850D01*
X81002D01*
Y172500D01*
G37*
G36*
X76720D02*X54000D01*
Y234000D01*
X76720D01*
Y228853D01*
X76711Y228844D01*
X76665Y228781D01*
X76434Y228392D01*
X76242Y227983D01*
X76086Y227558D01*
X75969Y227122D01*
X75890Y226677D01*
X75850Y226226D01*
Y225774D01*
X75890Y225323D01*
X75969Y224878D01*
X76086Y224442D01*
X76242Y224017D01*
X76434Y223608D01*
X76661Y223217D01*
X76708Y223153D01*
X76720Y223142D01*
Y172500D01*
G37*
G36*
X210500Y236500D02*X98680D01*
Y262147D01*
X98689Y262156D01*
X98735Y262219D01*
X98966Y262608D01*
X99158Y263017D01*
X99314Y263442D01*
X99431Y263878D01*
X99510Y264323D01*
X99550Y264774D01*
Y265226D01*
X99510Y265677D01*
X99431Y266122D01*
X99314Y266558D01*
X99158Y266983D01*
X98966Y267392D01*
X98739Y267783D01*
X98692Y267847D01*
X98680Y267858D01*
Y277000D01*
X202879D01*
X210500Y269379D01*
Y236500D01*
G37*
G36*
X98680D02*X94402D01*
Y259850D01*
X94626D01*
X95077Y259890D01*
X95522Y259969D01*
X95958Y260086D01*
X96383Y260242D01*
X96792Y260434D01*
X97183Y260661D01*
X97247Y260708D01*
X97302Y260766D01*
X97347Y260831D01*
X97382Y260902D01*
X97405Y260978D01*
X97415Y261057D01*
X97414Y261136D01*
X97400Y261214D01*
X97374Y261289D01*
X97336Y261359D01*
X97288Y261422D01*
X97231Y261477D01*
X97166Y261522D01*
X97094Y261557D01*
X97019Y261580D01*
X96940Y261591D01*
X96861Y261589D01*
X96783Y261575D01*
X96708Y261549D01*
X96639Y261510D01*
X96326Y261324D01*
X95996Y261169D01*
X95655Y261044D01*
X95303Y260949D01*
X94945Y260886D01*
X94582Y260854D01*
X94402D01*
Y269146D01*
X94582D01*
X94945Y269114D01*
X95303Y269051D01*
X95655Y268956D01*
X95996Y268831D01*
X96326Y268676D01*
X96641Y268493D01*
X96709Y268455D01*
X96784Y268429D01*
X96861Y268415D01*
X96940Y268413D01*
X97018Y268424D01*
X97093Y268447D01*
X97164Y268481D01*
X97228Y268526D01*
X97285Y268580D01*
X97333Y268643D01*
X97370Y268713D01*
X97396Y268787D01*
X97410Y268864D01*
X97411Y268943D01*
X97401Y269021D01*
X97378Y269096D01*
X97344Y269167D01*
X97299Y269232D01*
X97244Y269289D01*
X97181Y269335D01*
X96792Y269566D01*
X96383Y269758D01*
X95958Y269914D01*
X95522Y270031D01*
X95077Y270110D01*
X94626Y270150D01*
X94402D01*
Y277000D01*
X98680D01*
Y267858D01*
X98634Y267902D01*
X98569Y267947D01*
X98498Y267982D01*
X98422Y268005D01*
X98343Y268015D01*
X98264Y268014D01*
X98186Y268000D01*
X98111Y267974D01*
X98041Y267936D01*
X97978Y267888D01*
X97923Y267831D01*
X97878Y267766D01*
X97843Y267694D01*
X97820Y267619D01*
X97809Y267540D01*
X97811Y267461D01*
X97825Y267383D01*
X97851Y267308D01*
X97890Y267239D01*
X98076Y266926D01*
X98231Y266596D01*
X98356Y266255D01*
X98451Y265903D01*
X98514Y265545D01*
X98546Y265182D01*
Y264818D01*
X98514Y264455D01*
X98451Y264097D01*
X98356Y263745D01*
X98231Y263404D01*
X98076Y263074D01*
X97893Y262759D01*
X97855Y262691D01*
X97829Y262616D01*
X97815Y262539D01*
X97813Y262460D01*
X97824Y262382D01*
X97847Y262307D01*
X97881Y262236D01*
X97926Y262172D01*
X97980Y262115D01*
X98043Y262067D01*
X98113Y262030D01*
X98187Y262004D01*
X98264Y261990D01*
X98343Y261989D01*
X98421Y261999D01*
X98496Y262022D01*
X98567Y262056D01*
X98632Y262101D01*
X98680Y262147D01*
Y236500D01*
G37*
G36*
X94402D02*X90120D01*
Y262142D01*
X90166Y262098D01*
X90231Y262053D01*
X90302Y262018D01*
X90378Y261995D01*
X90457Y261985D01*
X90536Y261986D01*
X90614Y262000D01*
X90689Y262026D01*
X90759Y262064D01*
X90822Y262112D01*
X90877Y262169D01*
X90922Y262234D01*
X90957Y262306D01*
X90980Y262381D01*
X90991Y262460D01*
X90989Y262539D01*
X90975Y262617D01*
X90949Y262692D01*
X90910Y262761D01*
X90724Y263074D01*
X90569Y263404D01*
X90444Y263745D01*
X90349Y264097D01*
X90286Y264455D01*
X90254Y264818D01*
Y265182D01*
X90286Y265545D01*
X90349Y265903D01*
X90444Y266255D01*
X90569Y266596D01*
X90724Y266926D01*
X90907Y267241D01*
X90945Y267309D01*
X90971Y267384D01*
X90985Y267461D01*
X90987Y267540D01*
X90976Y267618D01*
X90953Y267693D01*
X90919Y267764D01*
X90874Y267828D01*
X90820Y267885D01*
X90757Y267933D01*
X90687Y267970D01*
X90613Y267996D01*
X90536Y268010D01*
X90457Y268011D01*
X90379Y268001D01*
X90304Y267978D01*
X90233Y267944D01*
X90168Y267899D01*
X90120Y267853D01*
Y277000D01*
X94402D01*
Y270150D01*
X94174D01*
X93723Y270110D01*
X93278Y270031D01*
X92842Y269914D01*
X92417Y269758D01*
X92008Y269566D01*
X91617Y269339D01*
X91553Y269292D01*
X91498Y269234D01*
X91453Y269169D01*
X91418Y269098D01*
X91395Y269022D01*
X91385Y268943D01*
X91386Y268864D01*
X91400Y268786D01*
X91426Y268711D01*
X91464Y268641D01*
X91512Y268578D01*
X91569Y268523D01*
X91634Y268478D01*
X91706Y268443D01*
X91781Y268420D01*
X91860Y268409D01*
X91939Y268411D01*
X92017Y268425D01*
X92092Y268451D01*
X92161Y268490D01*
X92474Y268676D01*
X92804Y268831D01*
X93145Y268956D01*
X93497Y269051D01*
X93855Y269114D01*
X94218Y269146D01*
X94402D01*
Y260854D01*
X94218D01*
X93855Y260886D01*
X93497Y260949D01*
X93145Y261044D01*
X92804Y261169D01*
X92474Y261324D01*
X92159Y261507D01*
X92091Y261545D01*
X92016Y261571D01*
X91939Y261585D01*
X91860Y261587D01*
X91782Y261576D01*
X91707Y261553D01*
X91636Y261519D01*
X91572Y261474D01*
X91515Y261420D01*
X91467Y261357D01*
X91430Y261287D01*
X91404Y261213D01*
X91390Y261136D01*
X91389Y261057D01*
X91399Y260979D01*
X91422Y260904D01*
X91456Y260833D01*
X91501Y260768D01*
X91556Y260711D01*
X91619Y260665D01*
X92008Y260434D01*
X92417Y260242D01*
X92842Y260086D01*
X93278Y259969D01*
X93723Y259890D01*
X94174Y259850D01*
X94402D01*
Y236500D01*
G37*
G36*
X90120D02*X85280D01*
Y262147D01*
X85289Y262156D01*
X85335Y262219D01*
X85566Y262608D01*
X85758Y263017D01*
X85914Y263442D01*
X86031Y263878D01*
X86110Y264323D01*
X86150Y264774D01*
Y265226D01*
X86110Y265677D01*
X86031Y266122D01*
X85914Y266558D01*
X85758Y266983D01*
X85566Y267392D01*
X85339Y267783D01*
X85292Y267847D01*
X85280Y267858D01*
Y277000D01*
X90120D01*
Y267853D01*
X90111Y267844D01*
X90065Y267781D01*
X89834Y267392D01*
X89642Y266983D01*
X89486Y266558D01*
X89369Y266122D01*
X89290Y265677D01*
X89250Y265226D01*
Y264774D01*
X89290Y264323D01*
X89369Y263878D01*
X89486Y263442D01*
X89642Y263017D01*
X89834Y262608D01*
X90061Y262217D01*
X90108Y262153D01*
X90120Y262142D01*
Y236500D01*
G37*
G36*
X85280D02*X81002D01*
Y259850D01*
X81226D01*
X81677Y259890D01*
X82122Y259969D01*
X82558Y260086D01*
X82983Y260242D01*
X83392Y260434D01*
X83783Y260661D01*
X83847Y260708D01*
X83902Y260766D01*
X83947Y260831D01*
X83982Y260902D01*
X84005Y260978D01*
X84015Y261057D01*
X84014Y261136D01*
X84000Y261214D01*
X83974Y261289D01*
X83936Y261359D01*
X83888Y261422D01*
X83831Y261477D01*
X83766Y261522D01*
X83694Y261557D01*
X83619Y261580D01*
X83540Y261591D01*
X83461Y261589D01*
X83383Y261575D01*
X83308Y261549D01*
X83239Y261510D01*
X82926Y261324D01*
X82596Y261169D01*
X82255Y261044D01*
X81903Y260949D01*
X81545Y260886D01*
X81182Y260854D01*
X81002D01*
Y269146D01*
X81182D01*
X81545Y269114D01*
X81903Y269051D01*
X82255Y268956D01*
X82596Y268831D01*
X82926Y268676D01*
X83241Y268493D01*
X83309Y268455D01*
X83384Y268429D01*
X83461Y268415D01*
X83540Y268413D01*
X83618Y268424D01*
X83693Y268447D01*
X83764Y268481D01*
X83828Y268526D01*
X83885Y268580D01*
X83933Y268643D01*
X83970Y268713D01*
X83996Y268787D01*
X84010Y268864D01*
X84011Y268943D01*
X84001Y269021D01*
X83978Y269096D01*
X83944Y269167D01*
X83899Y269232D01*
X83844Y269289D01*
X83781Y269335D01*
X83392Y269566D01*
X82983Y269758D01*
X82558Y269914D01*
X82122Y270031D01*
X81677Y270110D01*
X81226Y270150D01*
X81002D01*
Y277000D01*
X85280D01*
Y267858D01*
X85234Y267902D01*
X85169Y267947D01*
X85098Y267982D01*
X85022Y268005D01*
X84943Y268015D01*
X84864Y268014D01*
X84786Y268000D01*
X84711Y267974D01*
X84641Y267936D01*
X84578Y267888D01*
X84523Y267831D01*
X84478Y267766D01*
X84443Y267694D01*
X84420Y267619D01*
X84409Y267540D01*
X84411Y267461D01*
X84425Y267383D01*
X84451Y267308D01*
X84490Y267239D01*
X84676Y266926D01*
X84831Y266596D01*
X84956Y266255D01*
X85051Y265903D01*
X85114Y265545D01*
X85146Y265182D01*
Y264818D01*
X85114Y264455D01*
X85051Y264097D01*
X84956Y263745D01*
X84831Y263404D01*
X84676Y263074D01*
X84493Y262759D01*
X84455Y262691D01*
X84429Y262616D01*
X84415Y262539D01*
X84413Y262460D01*
X84424Y262382D01*
X84447Y262307D01*
X84481Y262236D01*
X84526Y262172D01*
X84580Y262115D01*
X84643Y262067D01*
X84713Y262030D01*
X84787Y262004D01*
X84864Y261990D01*
X84943Y261989D01*
X85021Y261999D01*
X85096Y262022D01*
X85167Y262056D01*
X85232Y262101D01*
X85280Y262147D01*
Y236500D01*
G37*
G36*
X81002D02*X76720D01*
Y262142D01*
X76766Y262098D01*
X76831Y262053D01*
X76902Y262018D01*
X76978Y261995D01*
X77057Y261985D01*
X77136Y261986D01*
X77214Y262000D01*
X77289Y262026D01*
X77359Y262064D01*
X77422Y262112D01*
X77477Y262169D01*
X77522Y262234D01*
X77557Y262306D01*
X77580Y262381D01*
X77591Y262460D01*
X77589Y262539D01*
X77575Y262617D01*
X77549Y262692D01*
X77510Y262761D01*
X77324Y263074D01*
X77169Y263404D01*
X77044Y263745D01*
X76949Y264097D01*
X76886Y264455D01*
X76854Y264818D01*
Y265182D01*
X76886Y265545D01*
X76949Y265903D01*
X77044Y266255D01*
X77169Y266596D01*
X77324Y266926D01*
X77507Y267241D01*
X77545Y267309D01*
X77571Y267384D01*
X77585Y267461D01*
X77587Y267540D01*
X77576Y267618D01*
X77553Y267693D01*
X77519Y267764D01*
X77474Y267828D01*
X77420Y267885D01*
X77357Y267933D01*
X77287Y267970D01*
X77213Y267996D01*
X77136Y268010D01*
X77057Y268011D01*
X76979Y268001D01*
X76904Y267978D01*
X76833Y267944D01*
X76768Y267899D01*
X76720Y267853D01*
Y277000D01*
X81002D01*
Y270150D01*
X80774D01*
X80323Y270110D01*
X79878Y270031D01*
X79442Y269914D01*
X79017Y269758D01*
X78608Y269566D01*
X78217Y269339D01*
X78153Y269292D01*
X78098Y269234D01*
X78053Y269169D01*
X78018Y269098D01*
X77995Y269022D01*
X77985Y268943D01*
X77986Y268864D01*
X78000Y268786D01*
X78026Y268711D01*
X78064Y268641D01*
X78112Y268578D01*
X78169Y268523D01*
X78234Y268478D01*
X78306Y268443D01*
X78381Y268420D01*
X78460Y268409D01*
X78539Y268411D01*
X78617Y268425D01*
X78692Y268451D01*
X78761Y268490D01*
X79074Y268676D01*
X79404Y268831D01*
X79745Y268956D01*
X80097Y269051D01*
X80455Y269114D01*
X80818Y269146D01*
X81002D01*
Y260854D01*
X80818D01*
X80455Y260886D01*
X80097Y260949D01*
X79745Y261044D01*
X79404Y261169D01*
X79074Y261324D01*
X78759Y261507D01*
X78691Y261545D01*
X78616Y261571D01*
X78539Y261585D01*
X78460Y261587D01*
X78382Y261576D01*
X78307Y261553D01*
X78236Y261519D01*
X78172Y261474D01*
X78115Y261420D01*
X78067Y261357D01*
X78030Y261287D01*
X78004Y261213D01*
X77990Y261136D01*
X77989Y261057D01*
X77999Y260979D01*
X78022Y260904D01*
X78056Y260833D01*
X78101Y260768D01*
X78156Y260711D01*
X78219Y260665D01*
X78608Y260434D01*
X79017Y260242D01*
X79442Y260086D01*
X79878Y259969D01*
X80323Y259890D01*
X80774Y259850D01*
X81002D01*
Y236500D01*
G37*
G36*
X76720D02*X74500D01*
Y277000D01*
X76720D01*
Y267853D01*
X76711Y267844D01*
X76665Y267781D01*
X76434Y267392D01*
X76242Y266983D01*
X76086Y266558D01*
X75969Y266122D01*
X75890Y265677D01*
X75850Y265226D01*
Y264774D01*
X75890Y264323D01*
X75969Y263878D01*
X76086Y263442D01*
X76242Y263017D01*
X76434Y262608D01*
X76661Y262217D01*
X76708Y262153D01*
X76720Y262142D01*
Y236500D01*
G37*
G36*
X192000Y230500D02*Y206000D01*
X118500D01*
Y230500D01*
X192000D01*
G37*
G36*
X222500Y192000D02*X193500D01*
Y222500D01*
X222500D01*
Y192000D01*
G37*
G36*
X228000Y218000D02*X239000D01*
Y192000D01*
X228000D01*
Y218000D01*
G37*
G36*
X216500Y171500D02*X234500D01*
Y158500D01*
X216500D01*
Y171500D01*
G37*
G36*
X271000Y217500D02*Y227000D01*
X286000D01*
Y217500D01*
X271000D01*
G37*
G36*
X296500Y238000D02*X311500D01*
Y231000D01*
X308559D01*
X308500Y231005D01*
X308265Y230986D01*
X308265Y230986D01*
X308265Y230986D01*
X308265Y230986D01*
X308088Y230944D01*
X308035Y230931D01*
X308035Y230931D01*
X308035Y230931D01*
X307873Y230864D01*
X307817Y230841D01*
X307817Y230841D01*
X307817Y230841D01*
X307673Y230753D01*
X307616Y230717D01*
X307616Y230717D01*
X307616Y230717D01*
X307615Y230717D01*
X307436Y230564D01*
X307398Y230519D01*
X306938Y230059D01*
X306893Y230021D01*
X306875Y230000D01*
X296500D01*
Y238000D01*
G37*
G36*
X242500Y198500D02*Y208000D01*
X258500D01*
Y198500D01*
X242500D01*
G37*
G36*
X246000Y157000D02*Y172879D01*
X246121Y173000D01*
X250984D01*
X251043Y172995D01*
X251102Y173000D01*
X263500D01*
Y157000D01*
X246000D01*
G37*
G36*
X269500Y103000D02*X283603D01*
X283738Y102944D01*
X283891Y102907D01*
X284048Y102898D01*
X284775Y102899D01*
X284710Y102744D01*
X284622Y102377D01*
X284593Y102000D01*
X284622Y101623D01*
X284710Y101256D01*
X284855Y100907D01*
X285052Y100585D01*
X285298Y100298D01*
X285585Y100052D01*
X285907Y99855D01*
X286256Y99710D01*
X286623Y99622D01*
X287000Y99593D01*
X287377Y99622D01*
X287744Y99710D01*
X288093Y99855D01*
X288415Y100052D01*
X288702Y100298D01*
X288948Y100585D01*
X289145Y100907D01*
X289250Y101161D01*
X289355Y100907D01*
X289552Y100585D01*
X289798Y100298D01*
X290085Y100052D01*
X290407Y99855D01*
X290756Y99710D01*
X291123Y99622D01*
X291500Y99593D01*
X291877Y99622D01*
X292244Y99710D01*
X292593Y99855D01*
X292915Y100052D01*
X293202Y100298D01*
X293448Y100585D01*
X293645Y100907D01*
X293790Y101256D01*
X293878Y101623D01*
X293900Y102000D01*
X293878Y102377D01*
X293790Y102744D01*
X293684Y103000D01*
X301603D01*
X301738Y102944D01*
X301891Y102907D01*
X302048Y102898D01*
X302775Y102899D01*
X302710Y102744D01*
X302622Y102377D01*
X302593Y102000D01*
X302622Y101623D01*
X302710Y101256D01*
X302855Y100907D01*
X303052Y100585D01*
X303298Y100298D01*
X303585Y100052D01*
X303907Y99855D01*
X304256Y99710D01*
X304623Y99622D01*
X305000Y99593D01*
X305377Y99622D01*
X305744Y99710D01*
X306093Y99855D01*
X306415Y100052D01*
X306702Y100298D01*
X306948Y100585D01*
X307145Y100907D01*
X307250Y101161D01*
X307355Y100907D01*
X307552Y100585D01*
X307798Y100298D01*
X308085Y100052D01*
X308407Y99855D01*
X308756Y99710D01*
X309123Y99622D01*
X309500Y99593D01*
X309877Y99622D01*
X310244Y99710D01*
X310593Y99855D01*
X310915Y100052D01*
X311202Y100298D01*
X311448Y100585D01*
X311645Y100907D01*
X311790Y101256D01*
X311878Y101623D01*
X311900Y102000D01*
X311878Y102377D01*
X311790Y102744D01*
X311684Y103000D01*
X331000D01*
Y98243D01*
X328757Y96000D01*
X315618D01*
X315500Y96009D01*
X315382Y96000D01*
X269500D01*
Y103000D01*
G37*
G36*
Y96000D02*Y112500D01*
X281000D01*
Y96000D01*
X269500D01*
G37*
G36*
X328757D02*X319500D01*
Y113500D01*
X331000D01*
Y108000D01*
X331000Y108000D01*
Y98243D01*
X328757Y96000D01*
G37*
G36*
X343500Y156000D02*Y150000D01*
X333059D01*
X333000Y150005D01*
X332941Y150000D01*
X331500D01*
Y155000D01*
X331541Y155017D01*
X331742Y155141D01*
X331922Y155294D01*
X331960Y155339D01*
X332621Y156000D01*
X343500D01*
G37*
G36*
X346000Y138500D02*X356000D01*
Y122830D01*
X355855Y122593D01*
X355816Y122500D01*
X346000D01*
Y138500D01*
G37*
G36*
X319500Y124500D02*X331000D01*
Y122559D01*
X330995Y122500D01*
X331014Y122265D01*
X331069Y122035D01*
X331159Y121817D01*
X331283Y121616D01*
X331283Y121615D01*
X331436Y121436D01*
X331481Y121398D01*
X332398Y120481D01*
X332436Y120436D01*
X332616Y120283D01*
X332817Y120159D01*
X333035Y120069D01*
X333265Y120014D01*
X333500Y119995D01*
X333559Y120000D01*
X335879D01*
X336000Y119879D01*
Y114500D01*
X319500D01*
Y124500D01*
G37*
G36*
X351500Y138500D02*Y130500D01*
X344500D01*
Y138500D01*
X351500D01*
G37*
G36*
X344000Y111500D02*X357000D01*
Y102621D01*
X349879Y95500D01*
X344000D01*
Y111500D01*
G37*
G36*
X300500Y74000D02*X306500D01*
Y49000D01*
X300500D01*
Y71941D01*
X300505Y72000D01*
X300500Y72059D01*
Y74000D01*
G37*
G36*
X289500Y57000D02*X299500D01*
Y49000D01*
X289500D01*
Y57000D01*
G37*
G36*
X351500Y59957D02*X374336D01*
X372481Y58102D01*
X372436Y58064D01*
X372283Y57884D01*
X372159Y57683D01*
X372069Y57465D01*
X372014Y57235D01*
X372014Y57235D01*
X371995Y57000D01*
X372000Y56941D01*
Y48059D01*
X371995Y48000D01*
X372014Y47765D01*
X372069Y47535D01*
X372159Y47317D01*
X372283Y47116D01*
X372283Y47115D01*
X372436Y46936D01*
X372481Y46898D01*
X377500Y41879D01*
Y33957D01*
X351500D01*
Y59957D01*
G37*
G36*
X381000Y110121D02*Y132000D01*
X388500D01*
Y78621D01*
X381500Y85621D01*
Y108941D01*
X381505Y109000D01*
X381486Y109235D01*
X381486Y109235D01*
X381431Y109465D01*
X381341Y109683D01*
X381217Y109884D01*
X381064Y110064D01*
X381019Y110102D01*
X381000Y110121D01*
G37*
G36*
X362000Y15957D02*Y23457D01*
X371500D01*
Y15957D01*
X362000D01*
G37*
G36*
X280500Y124500D02*Y124059D01*
X280495Y124000D01*
X280500Y123941D01*
Y114500D01*
X269500D01*
Y118441D01*
X269505Y118500D01*
X269500Y118559D01*
Y123879D01*
X270121Y124500D01*
X280500D01*
G37*
G36*
X338121Y174500D02*X343500D01*
Y150000D01*
X337500D01*
Y161441D01*
X337505Y161500D01*
X337500Y161559D01*
Y173879D01*
X338121Y174500D01*
G37*
G36*
X365000Y193500D02*X378000D01*
Y177500D01*
X365000D01*
Y193500D01*
G37*
G36*
X374000Y211500D02*X386500D01*
Y195500D01*
X374000D01*
Y211500D01*
G37*
G36*
X286000Y191500D02*X271000D01*
Y201000D01*
X286000D01*
Y191500D01*
G37*
G36*
X303000Y189500D02*Y192941D01*
X303005Y193000D01*
X303000Y193059D01*
Y199000D01*
X317379D01*
X318000Y198379D01*
Y189500D01*
X303000D01*
G37*
G36*
X318000Y197000D02*X303000D01*
Y206500D01*
X309125D01*
X309298Y206298D01*
X309585Y206052D01*
X309907Y205855D01*
X310256Y205710D01*
X310623Y205622D01*
X311000Y205593D01*
X311377Y205622D01*
X311744Y205710D01*
X312093Y205855D01*
X312415Y206052D01*
X312702Y206298D01*
X312875Y206500D01*
X315500D01*
Y201559D01*
X315495Y201500D01*
X315514Y201265D01*
X315569Y201035D01*
X315659Y200817D01*
X315783Y200616D01*
X315936Y200436D01*
X315981Y200398D01*
X318000Y198379D01*
Y197000D01*
G37*
G36*
X291500Y191500D02*Y204500D01*
X295400D01*
X295407Y199891D01*
X295444Y199738D01*
X295504Y199593D01*
X295586Y199458D01*
X295689Y199339D01*
X295808Y199236D01*
X295943Y199154D01*
X296088Y199094D01*
X296241Y199057D01*
X296398Y199048D01*
X297500Y199050D01*
Y191500D01*
X291500D01*
G37*
G36*
X321000Y189500D02*Y198941D01*
X321005Y199000D01*
X321000Y199059D01*
Y205500D01*
X329000D01*
Y189500D01*
X321000D01*
G37*
G36*
X247000Y146000D02*X260500D01*
Y141094D01*
X259891Y141093D01*
X259738Y141056D01*
X259593Y140996D01*
X259458Y140914D01*
X259339Y140811D01*
X259236Y140692D01*
X259154Y140557D01*
X259094Y140412D01*
X259057Y140259D01*
X259048Y140102D01*
X259048Y140000D01*
X247000D01*
Y146000D01*
G37*
G36*
X254500Y140000D02*Y148043D01*
X256484D01*
X256543Y148038D01*
X256778Y148057D01*
X256778Y148057D01*
X257008Y148112D01*
X257226Y148202D01*
X257427Y148326D01*
X257607Y148479D01*
X257625Y148500D01*
X265000D01*
Y141664D01*
X264435Y141100D01*
X259891Y141093D01*
X259738Y141056D01*
X259593Y140996D01*
X259458Y140914D01*
X259339Y140811D01*
X259236Y140692D01*
X259154Y140557D01*
X259094Y140412D01*
X259057Y140259D01*
X259048Y140102D01*
X259048Y140000D01*
X254500D01*
G37*
G54D12*X218937Y135000D02*Y143957D01*
X211500Y140500D02*Y137000D01*
X257400Y115500D02*X263000D01*
X252900Y133000D02*X257443Y137543D01*
X263000D01*
X242500Y128500D02*X263000D01*
X242500Y124500D02*X263000D01*
X239500Y142457D02*Y120000D01*
X267000Y117500D02*X268000Y118500D01*
X267000Y117500D02*X263000D01*
X268000Y118500D02*Y124500D01*
X270000Y126500D01*
X268500Y128000D02*X263086Y122586D01*
X267000Y132500D02*X263000D01*
X268500Y128000D02*Y129500D01*
X196000Y108917D02*Y106000D01*
X197500Y104500D01*
X218457D01*
X223957Y110000D01*
X252900Y120000D02*X257400Y115500D01*
X257500Y112500D02*X255000Y110000D01*
X231000D01*
X246000Y185543D02*Y194457D01*
X255000Y185543D02*Y194457D01*
X252524Y165000D02*X244000D01*
X242500Y166500D01*
Y171500D01*
X245500Y174500D01*
X251043D01*
X255000Y178457D01*
X240500Y172957D02*X246000Y178457D01*
X230476Y165000D02*X239000D01*
X240500Y166500D01*
Y172957D01*
X236043Y177500D02*X240500D01*
X236043Y186500D02*X240500D01*
X257500Y262000D02*X250500D01*
X202000Y280000D02*X89000D01*
X87700Y278700D01*
Y245500D01*
X203500Y234500D02*Y232000D01*
X206000Y229500D01*
X203500Y218476D02*Y227000D01*
X201000Y229500D01*
X203500Y76524D02*Y68500D01*
X205500Y66500D01*
X203500Y62500D02*X205500Y64500D01*
Y66500D02*X231500D01*
X205500Y64500D02*X232500D01*
X203500Y54476D02*Y62500D01*
G54D13*X202500Y42000D02*X215000D01*
G54D12*X231500Y66500D02*X252500Y87500D01*
X232500Y64500D02*X253500Y85500D01*
G54D13*X215000Y42000D02*X255000Y82000D01*
G54D12*X225500Y27000D02*X231500D01*
X232500Y28000D01*
X235000D01*
X211000Y186083D02*X228957D01*
X218917Y175000D02*X221417Y177500D01*
X228957D01*
X211500Y154500D02*Y158000D01*
X239500Y149543D02*X256543D01*
X260500Y153500D01*
X270500Y155500D02*X239500D01*
X218000D02*Y151043D01*
X250500Y262000D02*X243000Y254500D01*
Y239500D01*
X267459Y267750D02*X271041Y273750D01*
X212000Y234000D02*Y270000D01*
X202000Y280000D01*
X203500Y240524D02*Y234500D01*
X308500Y229500D02*X307957Y228957D01*
X281000Y279500D02*X315000D01*
X307957Y228957D02*Y225000D01*
X306043Y212000D02*X310000D01*
X311000Y211000D01*
Y208000D01*
X324000Y209543D02*Y270500D01*
X299543Y225000D02*X307957D01*
X315043Y234000D02*Y230043D01*
X314500Y229500D01*
X308500D01*
X284043D02*X292500D01*
X214500Y231500D02*X212000Y234000D01*
X214500Y231500D02*X276957D01*
X292500Y220500D02*Y234000D01*
Y220500D02*X290000Y218000D01*
G54D14*X282740Y158327D02*X279673D01*
X279000Y159000D01*
X287268Y160886D02*Y164000D01*
X289236Y160886D02*Y164000D01*
X285299Y160886D02*Y164000D01*
G54D12*X287268D02*Y164732D01*
X291205Y165795D02*X287500Y169500D01*
X290500Y169000D02*Y172500D01*
X289000Y174000D01*
X287500D01*
Y169500D02*Y171000D01*
X289236Y165264D02*X283500Y171000D01*
X287268Y164732D02*X281500Y170500D01*
X285299Y164000D02*X282500Y165500D01*
G54D14*X293173Y160886D02*Y164000D01*
X297110Y160886D02*Y164000D01*
X295142Y160886D02*Y164000D01*
X299079Y160886D02*Y164000D01*
X310890Y158720D02*Y164000D01*
X306953Y158720D02*Y151500D01*
X291205Y160886D02*Y164000D01*
G54D12*Y165795D01*
X295142Y164000D02*Y166858D01*
X297110Y164000D02*Y167000D01*
X296400Y169500D01*
X295142Y166858D02*X293500Y168500D01*
Y171500D01*
X293173Y164000D02*Y166327D01*
X290500Y169000D01*
G54D14*X303016Y158720D02*Y164000D01*
X308921Y158720D02*Y164000D01*
X304984Y158720D02*Y164000D01*
X301047Y160886D02*Y164000D01*
X279000Y159000D02*Y161000D01*
X282740Y156358D02*X279500D01*
X282740Y146516D02*X279500D01*
X282740Y154390D02*X279500D01*
X282740Y150453D02*X279500D01*
X282740Y152421D02*X279500D01*
G54D12*Y156358D02*X278142D01*
X279500Y154390D02*X277110D01*
X279500Y152421D02*X276079D01*
X278142Y156358D02*X276000Y158500D01*
X277110Y154390D02*X275000Y156500D01*
X271500D01*
X270500Y155500D01*
X276079Y152421D02*X275000Y153500D01*
X276000Y179000D02*X274000Y181000D01*
Y187457D01*
X276000Y158500D02*Y179000D01*
X290000Y184000D02*X285500Y179500D01*
Y176000D01*
X287500Y174000D01*
Y184500D02*X283500Y180500D01*
Y171000D01*
X281500Y170500D02*Y187457D01*
X310890Y164000D02*Y170610D01*
X308921Y164000D02*Y167500D01*
X308000Y169500D01*
X304984Y164000D02*X306000Y166500D01*
X308000Y169500D02*X306500Y171000D01*
Y185500D01*
X310890Y170610D02*X308500Y173000D01*
Y178000D01*
X309500Y180500D01*
X303016Y164016D02*Y180984D01*
X301500Y182500D01*
X301047Y164000D02*Y179953D01*
X299079Y164000D02*Y176921D01*
X296400Y169500D02*Y174100D01*
X301047Y179953D02*X298500Y182500D01*
X299079Y176921D02*X295500Y179500D01*
X296400Y174100D02*X292500Y178000D01*
X287000Y129000D02*X282000Y124000D01*
X275000D01*
X277079Y142579D02*X267000Y132500D01*
X277642Y138642D02*X268500Y129500D01*
X274500D02*Y131673D01*
X279500Y136673D02*X274500Y131673D01*
X328500Y146516D02*X331016D01*
X328500Y144547D02*X332047D01*
X333000Y145500D01*
X335500D01*
X331016Y146516D02*X333000Y148500D01*
X328500Y148484D02*X329984D01*
X333000Y148500D02*X352000D01*
X347543Y153000D02*Y148500D01*
X352043Y162000D02*X360457D01*
X367543Y171000D02*Y162000D01*
X372500Y166500D02*X367543D01*
X356500Y162000D02*Y157500D01*
Y174500D02*Y171000D01*
X362000Y154000D02*X363500Y155500D01*
X352043Y171000D02*X360457D01*
X352043Y181000D02*X360457D01*
Y190000D02*X352043D01*
X356500Y181000D02*Y190000D01*
X337500Y176000D02*X355000D01*
X356500Y174500D01*
X329000Y165000D02*Y174000D01*
X344957Y190000D02*X341500D01*
X340000Y188500D01*
X329000Y174000D02*X340000Y185000D01*
Y188500D02*Y185000D01*
X329000Y185500D02*X330500Y187000D01*
X333000Y184500D02*Y193500D01*
X330500Y187000D02*Y208000D01*
X328957Y209543D01*
X331043Y219000D02*Y214000D01*
X336500Y184500D02*Y192500D01*
X338500Y194500D01*
X340500Y208000D02*X344957D01*
X337500Y198000D02*Y205000D01*
X340500Y208000D01*
Y203500D02*X344957Y199043D01*
X338500Y194500D02*X359500D01*
X352043Y199000D02*X369957D01*
X352043Y208000D02*X369957D01*
X361000Y196000D02*Y199957D01*
X359500Y194500D02*X361000Y196000D01*
X333000Y193500D02*X337500Y198000D01*
X355000Y244500D02*X359957D01*
Y231500D02*Y244500D01*
X367500Y237000D02*Y231000D01*
Y242500D02*X375500D01*
Y229000D02*Y233957D01*
X355000Y253500D02*X359957D01*
Y266500D01*
X367500Y267000D02*Y261000D01*
Y255500D02*X375500D01*
Y269000D02*Y264043D01*
X347543Y144000D02*X355000D01*
X358000Y141000D01*
Y121500D01*
X371500Y117500D02*Y140500D01*
X368500Y117500D02*Y145500D01*
X332500Y132673D02*Y122500D01*
X333500Y121500D01*
X336500D01*
X337500Y120500D01*
X328500Y138642D02*X329858D01*
X335000Y133500D01*
Y128500D01*
X337500Y126000D01*
X341957D01*
G54D14*X316795Y158720D02*Y164000D01*
X318764Y158720D02*Y164000D01*
X312858Y158720D02*Y164000D01*
X314827Y158720D02*Y164000D01*
G54D12*X316795D02*Y167000D01*
X317500Y169500D01*
X318764Y164000D02*Y166764D01*
G54D14*X322890Y154390D02*X321000Y152500D01*
X325260Y152421D02*X327000D01*
X329000Y151500D01*
X322890Y154390D02*X328500D01*
G54D12*Y156358D02*X330858D01*
G54D14*X325260D02*X328500D01*
X325260Y158327D02*X328500D01*
G54D12*X329827D01*
X331500Y160000D01*
G54D14*X320732Y158720D02*Y164000D01*
G54D12*X326500Y162500D02*X329000Y165000D01*
G54D14*X322701Y160886D02*Y164000D01*
G54D12*X326000Y167299D01*
X320732Y165732D02*X323000Y168000D01*
X320732Y164000D02*Y165732D01*
X289236Y164000D02*Y165264D01*
X290000Y184000D02*Y218000D01*
X274957Y205000D02*Y213457D01*
X282043Y205000D02*Y213457D01*
Y205000D02*X286000D01*
X287500Y203500D01*
Y184500D01*
X292500Y178000D02*Y187500D01*
X330858Y156358D02*X336000Y161500D01*
Y174500D01*
X337500Y176000D01*
X331500Y160000D02*Y173500D01*
X339000Y181000D01*
X344957D01*
X326000Y177500D02*X333000Y184500D01*
X326000Y174000D02*X336500Y184500D01*
X326000Y177500D02*X323500D01*
X326000Y167299D02*Y174000D01*
X324000Y182000D02*Y185500D01*
X329000D01*
X319500Y182500D02*Y199000D01*
X317000Y201500D01*
Y225000D01*
X312858Y172642D02*X311500Y174000D01*
Y177500D01*
X309500Y180500D02*X314500Y185500D01*
X301500Y182500D02*Y193000D01*
X299500Y195000D01*
Y212000D01*
X328957Y209543D02*X324000D01*
X312858Y164000D02*Y172642D01*
X318764Y166736D02*X320500Y169000D01*
X314827Y163827D02*Y177827D01*
X319500Y182500D01*
X320500Y169000D02*Y178500D01*
X324000Y182000D01*
G54D14*X299079Y134114D02*Y131000D01*
G54D12*X297079Y129000D01*
G54D14*X301047Y134114D02*Y131000D01*
X303016Y135689D02*Y131000D01*
G54D12*X301047D02*Y130047D01*
X303016Y130984D02*Y129016D01*
X301047Y130047D02*X298000Y127000D01*
X303016Y129016D02*X298000Y124000D01*
X295000D01*
X298000Y127000D02*X290000D01*
X297079Y129000D02*X287000D01*
X294543Y122000D02*Y113543D01*
X309500Y113000D02*Y102000D01*
X296000Y113543D02*X292043D01*
X305000Y102000D02*Y106457D01*
G54D15*X296000D02*Y99500D01*
X314000Y106457D02*Y99500D01*
G54D12*X290000Y127000D02*X288457Y125457D01*
Y113500D01*
X312543Y122000D02*Y113543D01*
X306457Y122000D02*Y113543D01*
X314000D02*X310043D01*
X309500Y113000D01*
X292043Y113543D02*X291500Y113000D01*
Y102000D01*
X287000D02*Y106457D01*
X305957Y127457D02*Y122000D01*
X310000Y127500D02*X312000D01*
X313043Y126457D01*
Y122000D01*
G54D14*X306953Y135689D02*Y131000D01*
G54D12*Y128453D01*
X305957Y127457D01*
G54D14*X308921Y135689D02*Y131000D01*
X310890Y135689D02*Y131000D01*
G54D12*X308921D02*Y128579D01*
X310000Y127500D01*
X310890Y131000D02*X312390Y129500D01*
X314500D01*
X322500Y121500D01*
X319500Y127000D02*X321500D01*
X319764Y130000D02*X322500D01*
X325500Y127000D01*
G54D14*X316795Y136280D02*Y131000D01*
X320732Y136280D02*Y132368D01*
X321500Y131600D01*
G54D12*X316795Y131000D02*Y129705D01*
X319500Y127000D01*
X318764Y131000D02*X319764Y130000D01*
X340457Y142579D02*Y135000D01*
X328500Y142579D02*X340457D01*
X328500Y140610D02*X332390D01*
X334000Y139000D01*
X329984Y148484D02*X334500Y153000D01*
X328500Y154390D02*X334500D01*
X337500Y120500D02*Y113500D01*
X339000Y112000D01*
Y99000D01*
G54D14*X325260Y138642D02*X328500D01*
X325260Y142579D02*X328500D01*
X325260Y146516D02*X328500D01*
X325260Y144547D02*X328500D01*
Y148484D02*X321000D01*
X328500Y140610D02*X322890D01*
X321000Y142500D01*
X325260Y136673D02*X328500D01*
G54D12*X332500Y132673D01*
G54D14*X321500Y131600D02*X329000D01*
G54D12*X252500Y87500D02*X299000D01*
X253500Y85500D02*X301500D01*
G54D13*X255000Y82000D02*X304500D01*
G54D12*X291500Y90500D02*X262000D01*
X265000Y93500D02*X287000D01*
X291110Y74890D02*X294952D01*
Y68984D02*X289984D01*
X288500Y67500D01*
X290579Y72921D02*X294952D01*
X290579D02*X289500Y74000D01*
X287500D02*X289500D01*
X284000Y72500D02*X279543D01*
X268000D02*X272457D01*
X270500Y14000D02*X377500D01*
X311760Y22000D02*Y14000D01*
X329240Y22000D02*X340000D01*
X345721Y35976D02*X314024D01*
X313000Y26500D02*X353477D01*
X313024Y35976D02*X311760Y37240D01*
X313024Y26476D02*X311760Y27740D01*
Y32000D01*
Y37240D02*Y42000D01*
X373500Y48000D02*Y57000D01*
X375500Y56000D02*Y49000D01*
X284000Y54500D02*X279543D01*
X291110Y74890D02*X288500Y77500D01*
X272457Y48543D02*Y66000D01*
X290000Y60000D02*Y53000D01*
Y60000D02*Y62500D01*
X290579Y63079D01*
X284000Y63500D02*X279543D01*
X314000Y35976D02*X313024D01*
X245000Y33000D02*X247500Y30500D01*
X254500D01*
X270500Y14000D02*X264500Y20000D01*
X272457Y48543D02*X264500Y40586D01*
Y20000D02*Y40586D01*
X290579Y63079D02*X294952D01*
Y61110D02*X290000D01*
X319000Y63000D02*Y65047D01*
X312048Y63079D02*X316079D01*
X316500Y63500D01*
Y65047D01*
X359775Y65779D02*Y56957D01*
X366075Y65779D02*Y56957D01*
X356626Y37043D02*Y28221D01*
X362925Y65779D02*Y69882D01*
X364000Y70957D01*
X369224D01*
X383279Y48575D02*X386925D01*
X383279Y51725D02*X386725D01*
X387500Y52500D01*
X383279Y54874D02*X378500D01*
X387500Y52500D02*Y77500D01*
X383279Y42276D02*X379224D01*
X380000Y60500D02*X375500Y56000D01*
X379224Y42276D02*X373500Y48000D01*
X383279Y45425D02*X379075D01*
X375500Y49000D01*
X378000Y61500D02*X373500Y57000D01*
X359775Y65779D02*Y75957D01*
X353476Y65779D02*Y72024D01*
X351500Y74000D01*
X356626Y65779D02*Y73374D01*
X354000Y76000D01*
X329000D02*X354000D01*
X334500Y74000D02*X351500D01*
X339043Y61000D02*X342000Y64457D01*
X339043Y88500D02*X342000Y85543D01*
X339043Y88500D02*X334556D01*
X332985Y86929D01*
Y82283D01*
X369224Y65779D02*Y75957D01*
X378000Y61500D02*Y78000D01*
X380000Y79000D02*Y60500D01*
X383279Y58024D02*Y78721D01*
X378000Y78000D02*X374000Y82000D01*
X376000Y83000D02*X380000Y79000D01*
X383279Y78721D02*X378000Y84000D01*
X387500Y77500D02*X380000Y85000D01*
G54D16*X369000Y96552D02*Y92500D01*
G54D12*X374000Y103500D02*Y82000D01*
X378000Y108000D02*Y84000D01*
X380000Y109000D02*Y85000D01*
Y109000D02*X371500Y117500D01*
X378000Y108000D02*X368500Y117500D01*
G54D16*X369500Y100531D02*X364531D01*
G54D12*X374000Y103500D02*X373031Y104469D01*
X369500D01*
G54D16*X364531Y100531D02*X362500Y98500D01*
Y92500D02*Y98500D01*
G54D12*X339043Y61000D02*X325500D01*
X345721Y58023D02*X323977D01*
X345721Y54874D02*X324126D01*
X345721Y51724D02*X322776D01*
X338000Y46000D02*X333500Y41500D01*
X345721Y39126D02*X340000D01*
Y32000D02*X329240D01*
X356626Y28221D02*Y18957D01*
X366075Y28221D02*Y18457D01*
X387500Y24000D02*X377500Y14000D01*
X386925Y48575D02*X387500Y48000D01*
Y24000D01*
G54D14*X318764Y136280D02*Y131000D01*
G54D12*X299000Y87500D02*X305000Y93500D01*
X301500Y85500D02*X309500Y93500D01*
G54D13*X304500Y82000D02*X315500Y93000D01*
G54D12*X300500Y78000D02*X309000D01*
X319500Y88500D01*
X312048Y74890D02*X315890D01*
X317890Y61110D02*X312048D01*
Y72921D02*X316421D01*
X317500Y74000D01*
X312048Y65047D02*X319000D01*
X315890Y74890D02*X318500Y77500D01*
X317500Y74000D02*X319500D01*
X312048Y67016D02*X294952D01*
X312000Y70953D02*X305000D01*
X312000Y68984D02*X305000D01*
X294952Y65047D02*X303500D01*
X295000Y70953D02*X297953D01*
X299000Y72000D01*
Y76500D01*
X300500Y78000D01*
X263000Y137543D02*X271973Y146516D01*
X279500D01*
G54D14*X282740Y144547D02*X279500D01*
G54D12*X276047D01*
X275000Y143500D01*
X273000D01*
G54D14*X285299Y134114D02*Y131000D01*
G54D12*Y130299D01*
X281500Y126500D01*
G54D14*X282740Y142579D02*X279500D01*
G54D12*X277079D01*
G54D14*X282740Y138642D02*X279500D01*
G54D12*X270000Y126500D02*X281500D01*
G54D14*X282740Y136673D02*X279500D01*
G54D12*Y138642D02*X277642D01*
X279500Y150453D02*X266500D01*
X260500Y153500D02*X275000D01*
X323929Y81071D02*X329000Y76000D01*
X334500Y74000D02*X332985Y72485D01*
Y67717D01*
X322776Y51724D02*X317000Y57500D01*
G54D13*X315500Y93000D02*X330000D01*
G54D12*X319500Y88500D02*X328000D01*
G54D13*X330000Y93000D02*X334000Y97000D01*
Y108000D01*
G54D12*X369500Y108406D02*X374094D01*
X376000Y106500D01*
Y83000D02*Y106500D01*
X325500Y61000D02*X323929Y63071D01*
Y67717D01*
X324126Y54874D02*X317890Y61110D01*
X323977Y58023D02*X319000Y63000D01*
G54D13*X334000Y97000D02*Y116500D01*
G54D12*X341957Y126000D02*Y117000D01*
X349043D02*X362000D01*
Y105500D02*X349500Y93000D01*
X336500D01*
X362000Y105500D02*Y154000D01*
X257500Y262000D02*G75*G03X267459Y267750I0J11500D01*G01*
X281000Y279500D02*G75*G03X271041Y273750I0J-11500D01*G01*
X324000Y270500D02*G75*G03X315000Y279500I-9000J0D01*G01*
G54D17*X94400Y265000D03*
X81000D03*
X94400Y226000D03*
X81000D03*
G54D11*G36*
X34500Y231000D02*Y222000D01*
X43500D01*
Y231000D01*
X34500D01*
G37*
G54D18*X39000Y206500D03*
G54D19*X45000Y262500D03*
G54D11*G36*
X34500Y113000D02*Y104000D01*
X43500D01*
Y113000D01*
X34500D01*
G37*
G54D18*X39000Y186500D03*
Y88500D03*
Y68500D03*
G54D19*X45000Y32500D03*
G54D20*X285000D03*
Y262500D03*
G54D11*G36*
X246500Y266000D02*Y258000D01*
X254500D01*
Y266000D01*
X246500D01*
G37*
G54D21*X260500Y274500D03*
G54D22*X230500Y262000D03*
G54D21*X220500Y274500D03*
G54D23*X253000Y239500D03*
X248000Y249500D03*
X238000D03*
X228000D03*
X243000Y239500D03*
X233000D03*
G54D24*X218228Y160000D02*X219606D01*
X218228Y165000D02*X219606D01*
G54D25*X218228Y160000D02*X219606D01*
X218228Y165000D02*X219606D01*
G54D26*X218248D02*X219626D01*
X218248Y160000D02*X219626D01*
G54D24*X218228Y170000D02*X219606D01*
X218228Y175000D02*X219606D01*
G54D25*X218228Y170000D02*X219606D01*
G54D26*X218248D02*X219626D01*
X218248Y175000D02*X219626D01*
G54D25*X218228D02*X219606D01*
G54D27*X219595Y214755D02*Y209245D01*
Y200755D02*Y195245D01*
G54D28*X196000Y209409D02*Y208622D01*
G54D24*Y209429D02*Y208445D01*
G54D28*X201000Y209409D02*Y208622D01*
X206000Y209409D02*Y208622D01*
X211000Y209409D02*Y208622D01*
G54D24*X201000Y209429D02*Y208445D01*
X206000Y209429D02*Y208445D01*
X211000Y209429D02*Y208445D01*
G54D11*G36*
X203894Y206358D02*Y200453D01*
X209799D01*
Y206358D01*
X203894D01*
G37*
G54D29*X200744Y218476D02*X206256D01*
X200744Y240524D02*X206256D01*
G54D30*X202201Y200059D02*X204799D01*
G54D31*X203500Y201909D02*Y201358D01*
G54D11*G36*
X197201Y206358D02*Y200453D01*
X203106D01*
Y206358D01*
X197201D01*
G37*
G36*
Y199665D02*Y193760D01*
X203106D01*
Y199665D01*
X197201D01*
G37*
G36*
X203894D02*Y193760D01*
X209799D01*
Y199665D01*
X203894D01*
G37*
G54D24*X196000Y186772D02*Y185394D01*
X201000Y186772D02*Y185394D01*
G54D25*X196000Y186772D02*Y185394D01*
X201000Y186772D02*Y185394D01*
G54D26*Y186752D02*Y185374D01*
X196000Y186752D02*Y185374D01*
G54D24*X206000Y186772D02*Y185394D01*
X211000Y186772D02*Y185394D01*
G54D25*X206000Y186772D02*Y185394D01*
G54D26*Y186752D02*Y185374D01*
X211000Y186752D02*Y185374D01*
G54D25*Y186772D02*Y185394D01*
G54D27*X231405Y214755D02*Y209245D01*
Y200755D02*Y195245D01*
X228957Y186893D02*Y186107D01*
G54D29*X230476Y167756D02*Y162244D01*
G54D27*X236043Y186893D02*Y186107D01*
Y177893D02*Y177107D01*
X228957Y177893D02*Y177107D01*
X245607Y178457D02*X246393D01*
X245607Y185543D02*X246393D01*
X245607Y194457D02*X246393D01*
X254607D02*X255393D01*
X245607Y201543D02*X246393D01*
X254607D02*X255393D01*
X254607Y178457D02*X255393D01*
X254607Y185543D02*X255393D01*
G54D29*X252524Y167756D02*Y162244D01*
G54D27*X282607Y187457D02*X283393D01*
X282607Y194543D02*X283393D01*
X273607D02*X274393D01*
X273607Y187457D02*X274393D01*
X274957Y205393D02*Y204607D01*
X282043Y205393D02*Y204607D01*
X273607Y213457D02*X274393D01*
X273607Y220543D02*X274393D01*
X298957Y212393D02*Y211607D01*
X306043Y212393D02*Y211607D01*
X315543Y225393D02*Y224607D01*
X308457Y225393D02*Y224607D01*
X306043Y203393D02*Y202607D01*
X298957Y203393D02*Y202607D01*
X314607Y192543D02*X315393D01*
X305607D02*X306393D01*
X305607Y185457D02*X306393D01*
X294107Y187457D02*X294893D01*
X294107Y194543D02*X294893D01*
X315543Y234393D02*Y233607D01*
X308457Y234393D02*Y233607D01*
X299543Y225393D02*Y224607D01*
X292457Y225393D02*Y224607D01*
X299543Y234393D02*Y233607D01*
X292457Y234393D02*Y233607D01*
X282607Y213457D02*X283393D01*
X282607Y220543D02*X283393D01*
X284043Y231893D02*Y231107D01*
X276957Y231893D02*Y231107D01*
G54D32*X175300Y127500D02*X176300D01*
G54D11*G36*
X205335Y127106D02*Y121201D01*
X211240D01*
Y127106D01*
X205335D01*
G37*
G36*
Y133799D02*Y127894D01*
X211240D01*
Y133799D01*
X205335D01*
G37*
G36*
X198642D02*Y127894D01*
X204547D01*
Y133799D01*
X198642D01*
G37*
G54D32*X175300Y167500D02*X176300D01*
G54D33*X140000Y250200D02*Y240800D01*
Y218400D02*Y208900D01*
G54D27*X170245Y239405D02*X175755D01*
X170245Y227595D02*X175755D01*
X183745D02*X189255D01*
X183745Y239405D02*X189255D01*
G54D28*X195591Y160000D02*X196378D01*
G54D24*X195571D02*X196555D01*
G54D28*X195591Y165000D02*X196378D01*
G54D24*X195571D02*X196555D01*
G54D28*X195591Y170000D02*X196378D01*
G54D24*X195571D02*X196555D01*
G54D28*X195591Y175000D02*X196378D01*
G54D24*X195571D02*X196555D01*
G54D30*X204941Y168799D02*Y166201D01*
G54D31*X203091Y167500D02*X203642D01*
G54D11*G36*
X198642Y167106D02*Y161201D01*
X204547D01*
Y167106D01*
X198642D01*
G37*
G36*
X205335D02*Y161201D01*
X211240D01*
Y167106D01*
X205335D01*
G37*
G36*
Y173799D02*Y167894D01*
X211240D01*
Y173799D01*
X205335D01*
G37*
G36*
X198642D02*Y167894D01*
X204547D01*
Y173799D01*
X198642D01*
G37*
G54D34*X88900Y149600D02*Y145400D01*
G54D33*X107500Y53000D02*Y44000D01*
X138000Y83100D02*Y74000D01*
X77000Y57500D02*Y48500D01*
Y83100D02*Y74000D01*
X107500Y27500D02*Y18400D01*
X168500Y53000D02*Y44000D01*
Y27500D02*Y18400D01*
X138000Y57500D02*Y48500D01*
G54D27*X180245Y67095D02*X185755D01*
X180245Y78905D02*X185755D01*
X166745Y67095D02*X172255D01*
X166745Y78905D02*X172255D01*
G54D24*X211000Y109606D02*Y108228D01*
X206000Y109606D02*Y108228D01*
G54D25*X211000Y109606D02*Y108228D01*
X206000Y109606D02*Y108228D01*
G54D26*Y109626D02*Y108248D01*
X211000Y109626D02*Y108248D01*
G54D24*X201000Y109606D02*Y108228D01*
X196000Y109606D02*Y108228D01*
G54D25*X201000Y109606D02*Y108228D01*
G54D26*Y109626D02*Y108248D01*
X196000Y109626D02*Y108248D01*
G54D25*Y109606D02*Y108228D01*
G54D29*X200744Y54476D02*X206256D01*
X200744Y76524D02*X206256D01*
G54D28*X211000Y86378D02*Y85591D01*
X206000Y86378D02*Y85591D01*
G54D24*X211000Y86555D02*Y85571D01*
X206000Y86555D02*Y85571D01*
G54D30*X202201Y94941D02*X204799D01*
G54D11*G36*
X203894Y94547D02*Y88642D01*
X209799D01*
Y94547D01*
X203894D01*
G37*
G36*
Y101240D02*Y95335D01*
X209799D01*
Y101240D01*
X203894D01*
G37*
G36*
X197201D02*Y95335D01*
X203106D01*
Y101240D01*
X197201D01*
G37*
G36*
Y94547D02*Y88642D01*
X203106D01*
Y94547D01*
X197201D01*
G37*
G54D31*X203500Y93642D02*Y93091D01*
G54D24*X196000Y86555D02*Y85571D01*
G54D28*X201000Y86378D02*Y85591D01*
X196000Y86378D02*Y85591D01*
G54D24*X201000Y86555D02*Y85571D01*
G54D27*X231405Y85755D02*Y80245D01*
Y99755D02*Y94245D01*
X231043Y110393D02*Y109607D01*
X219595Y99755D02*Y94245D01*
G54D28*X195591Y120000D02*X196378D01*
G54D24*X195571D02*X196555D01*
G54D28*X195591Y125000D02*X196378D01*
G54D24*X195571D02*X196555D01*
G54D28*X195591Y130000D02*X196378D01*
X195591Y135000D02*X196378D01*
G54D24*X195571Y130000D02*X196555D01*
X195571Y135000D02*X196555D01*
G54D30*X204941Y128799D02*Y126201D01*
G54D31*X203091Y127500D02*X203642D01*
G54D11*G36*
X198642Y127106D02*Y121201D01*
X204547D01*
Y127106D01*
X198642D01*
G37*
G54D24*X218228Y120000D02*X219606D01*
G54D25*X218228D02*X219606D01*
G54D26*X218248D02*X219626D01*
G54D27*X219595Y85755D02*Y80245D01*
G54D24*X218228Y125000D02*X219606D01*
G54D25*X218228D02*X219606D01*
G54D26*X218248D02*X219626D01*
G54D24*X218228Y130000D02*X219606D01*
X218228Y135000D02*X219606D01*
G54D25*X218228Y130000D02*X219606D01*
X218228Y135000D02*X219606D01*
G54D26*X218248Y130000D02*X219626D01*
X218248Y135000D02*X219626D01*
G54D27*X217607Y143957D02*X218393D01*
X217607Y151043D02*X218393D01*
X223957Y110393D02*Y109607D01*
G54D35*X240000Y133600D02*Y132400D01*
Y120600D02*Y119400D01*
X252900Y133600D02*Y132400D01*
Y120600D02*Y119400D01*
G54D27*X262607Y130457D02*X263393D01*
X262607Y137543D02*X263393D01*
X250107Y150043D02*X250893D01*
X250107Y142957D02*X250893D01*
X241107Y150043D02*X241893D01*
X241107Y142957D02*X241893D01*
X262607Y115500D02*X263393D01*
X262607Y122586D02*X263393D01*
X272245Y121405D02*X277755D01*
X272245Y109595D02*X277755D01*
X313607Y113543D02*X314393D01*
X304607D02*X305393D01*
X313043Y122393D02*Y121607D01*
X305957Y122393D02*Y121607D01*
X313607Y106457D02*X314393D01*
X304607D02*X305393D01*
X295607D02*X296393D01*
X286607D02*X287393D01*
X295607Y113543D02*X296393D01*
X286607D02*X287393D01*
X295043Y122393D02*Y121607D01*
X287957Y122393D02*Y121607D01*
X322745Y121405D02*X328255D01*
X322745Y109595D02*X328255D01*
G54D36*X310890Y161772D02*Y155669D01*
X308921Y161772D02*Y155669D01*
X306953Y161772D02*Y155669D01*
X304984Y161772D02*Y155669D01*
X303016Y161772D02*Y155669D01*
X301047Y161772D02*Y160000D01*
X299079Y161772D02*Y160000D01*
X297110Y161772D02*Y160000D01*
X295142Y161772D02*Y160000D01*
X293173Y161772D02*Y160000D01*
X291205Y161772D02*Y160000D01*
X289236Y161772D02*Y160000D01*
X287268Y161772D02*Y160000D01*
X285299Y161772D02*Y160000D01*
X281854Y158327D02*X283626D01*
X281854Y156358D02*X283626D01*
X281854Y154390D02*X283626D01*
X281854Y152421D02*X283626D01*
X281854Y150453D02*X283626D01*
X281854Y146516D02*X283626D01*
X281854Y144547D02*X283626D01*
X281854Y142579D02*X283626D01*
X281854Y138642D02*X283626D01*
X281854Y136673D02*X283626D01*
X285299Y135000D02*Y133228D01*
X289236Y135000D02*Y133228D01*
X291205Y135000D02*Y133228D01*
X293173Y135000D02*Y133228D01*
X295142Y135000D02*Y133228D01*
X299079Y135000D02*Y133228D01*
X301047Y135000D02*Y133228D01*
X303016Y138150D02*Y133228D01*
X306953Y138150D02*Y133228D01*
X308921Y138150D02*Y133228D01*
X310890Y138150D02*Y133228D01*
X314827Y139331D02*Y133228D01*
G54D37*X293173Y147500D02*X314827D01*
G54D38*X291736D02*X316264D01*
G54D39*X292622Y148386D02*X293528D01*
G54D27*X340457Y144393D02*Y143607D01*
X347543Y144393D02*Y143607D01*
X340457Y135393D02*Y134607D01*
X347543Y135393D02*Y134607D01*
Y153393D02*Y152607D01*
X340457Y153393D02*Y152607D01*
X344957Y162393D02*Y161607D01*
X341957Y117393D02*Y116607D01*
Y126393D02*Y125607D01*
X349043Y117393D02*Y116607D01*
Y126393D02*Y125607D01*
X347043Y108393D02*Y107607D01*
Y99393D02*Y98607D01*
X339957Y108393D02*Y107607D01*
Y99393D02*Y98607D01*
X352043Y162393D02*Y161607D01*
Y181393D02*Y180607D01*
X344957Y181393D02*Y180607D01*
X360457Y162393D02*Y161607D01*
X360957Y190393D02*Y189607D01*
Y181393D02*Y180607D01*
X360457Y171393D02*Y170607D01*
X367543Y171393D02*Y170607D01*
X344957Y171393D02*Y170607D01*
X352043Y171393D02*Y170607D01*
Y190393D02*Y189607D01*
X344957Y190393D02*Y189607D01*
X352043Y208393D02*Y207607D01*
X344957Y208393D02*Y207607D01*
X352043Y199393D02*Y198607D01*
X344957Y199393D02*Y198607D01*
G54D36*X322701Y161772D02*Y160000D01*
X320732Y161772D02*Y155669D01*
X318764Y161772D02*Y155669D01*
X316795Y161772D02*Y155669D01*
X314827Y161772D02*Y155669D01*
X312858Y161772D02*Y155669D01*
G54D27*X314607Y185457D02*X315393D01*
X323607D02*X324393D01*
X323607Y192543D02*X324393D01*
X323607Y202457D02*X324393D01*
X323607Y209543D02*X324393D01*
X331043Y219393D02*Y218607D01*
X323957Y219393D02*Y218607D01*
X367543Y162393D02*Y161607D01*
X368043Y190393D02*Y189607D01*
Y181393D02*Y180607D01*
X369957Y208393D02*Y207607D01*
X377043Y208393D02*Y207607D01*
Y199393D02*Y198607D01*
X369957Y199393D02*Y198607D01*
X375107Y233957D02*X375893D01*
X375107Y241043D02*X375893D01*
X360607Y199957D02*X361393D01*
X360607Y207043D02*X361393D01*
X359957Y266893D02*Y266107D01*
Y231893D02*Y231107D01*
Y244893D02*Y244107D01*
Y253893D02*Y253107D01*
X367043Y266893D02*Y266107D01*
Y231893D02*Y231107D01*
Y244893D02*Y244107D01*
Y253893D02*Y253107D01*
X375107Y264043D02*X375893D01*
X375107Y256957D02*X375893D01*
G54D40*X375523Y67992D02*Y63566D01*
X372374Y67992D02*Y63566D01*
X369224Y67992D02*Y63566D01*
X366075Y67992D02*Y63566D01*
X362925Y67992D02*Y63566D01*
X359775Y67992D02*Y63566D01*
X356626Y67992D02*Y63566D01*
G54D27*X361457Y76350D02*Y75564D01*
X368543Y76350D02*Y75564D01*
G54D41*X367630Y96594D02*X371370D01*
X367630Y100531D02*X371370D01*
X367630Y104469D02*X371370D01*
X367630Y108406D02*X371370D01*
G54D36*X316795Y139331D02*Y133228D01*
X318764Y139331D02*Y133228D01*
X320732Y139331D02*Y133228D01*
X322701Y135000D02*Y133228D01*
X324374Y136673D02*X326146D01*
X324374Y138642D02*X326146D01*
X324374Y140610D02*X326146D01*
X324374Y142579D02*X326146D01*
G54D27*X323929Y83661D02*Y80906D01*
Y69094D02*Y66339D01*
G54D36*X324374Y144547D02*X326146D01*
X324374Y146516D02*X326146D01*
X324374Y148484D02*X326146D01*
X324374Y150453D02*X326146D01*
X324374Y152421D02*X326146D01*
X324374Y154390D02*X326146D01*
X324374Y156358D02*X326146D01*
X324374Y158327D02*X326146D01*
G54D40*X362925Y30434D02*Y26008D01*
X366075Y30434D02*Y26008D01*
X369225Y30434D02*Y26008D01*
X372374Y30434D02*Y26008D01*
X375524Y30434D02*Y26008D01*
X381066Y35977D02*X385492D01*
X381066Y39126D02*X385492D01*
X381066Y42276D02*X385492D01*
X381066Y45425D02*X385492D01*
X381066Y48575D02*X385492D01*
X381066Y51725D02*X385492D01*
X381066Y54874D02*X385492D01*
X381066Y58024D02*X385492D01*
G54D42*X383575Y91476D02*X385937D01*
X383575Y113524D02*X385937D01*
G54D43*X235000Y28000D03*
Y33000D03*
X240000Y28000D03*
Y33000D03*
X245000Y28000D03*
Y33000D03*
G54D27*X341607Y71543D02*X342393D01*
X341607Y64457D02*X342393D01*
X332985Y69094D02*Y66339D01*
X341607Y78457D02*X342393D01*
X341607Y85543D02*X342393D01*
X332985Y83661D02*Y80906D01*
G54D40*X353476Y67992D02*Y63566D01*
X343508Y58023D02*X347934D01*
X343508Y54874D02*X347934D01*
X343508Y51724D02*X347934D01*
X343508Y48575D02*X347934D01*
X343508Y45425D02*X347934D01*
X343508Y42275D02*X347934D01*
X343508Y39126D02*X347934D01*
X343508Y35976D02*X347934D01*
X353477Y30434D02*Y26008D01*
X356626Y30434D02*Y26008D01*
X359776Y30434D02*Y26008D01*
G54D27*X357957Y19350D02*Y18564D01*
X365043Y19350D02*Y18564D01*
G54D44*X307016Y42000D02*X316504D01*
X307016Y32000D02*X316504D01*
X307016Y22000D02*X316504D01*
X324496D02*X333984D01*
X324496Y32000D02*X333984D01*
X324496Y42000D02*X333984D01*
G54D27*X296457Y53393D02*Y52607D01*
X303543Y53393D02*Y52607D01*
G54D45*X293803Y65047D02*X296102D01*
X293803Y63079D02*X296102D01*
X293803Y61110D02*X296102D01*
G54D46*X294500Y65047D02*X295500D01*
X294500Y63079D02*X295500D01*
X294500Y61110D02*X295500D01*
G54D45*X293803Y74890D02*X296102D01*
G54D46*X294500D02*X295500D01*
G54D45*X293803Y72921D02*X296102D01*
G54D46*X294500D02*X295500D01*
G54D45*X293803Y70953D02*X296102D01*
G54D46*X294500D02*X295500D01*
G54D45*X293803Y68984D02*X296102D01*
X293803Y67016D02*X296102D01*
G54D46*X294500Y68984D02*X295500D01*
X294500Y67016D02*X295500D01*
G54D27*X272457Y72893D02*Y72107D01*
Y63893D02*Y63107D01*
Y54893D02*Y54107D01*
X279543Y72893D02*Y72107D01*
Y63893D02*Y63107D01*
Y54893D02*Y54107D01*
G54D45*X310898Y61110D02*X313197D01*
G54D46*X311500D02*X312500D01*
G54D45*X310898Y63079D02*X313197D01*
G54D46*X311500D02*X312500D01*
G54D45*X310898Y65047D02*X313197D01*
G54D46*X311500D02*X312500D01*
G54D45*X310898Y67016D02*X313197D01*
X310898Y68984D02*X313197D01*
G54D46*X311500Y67016D02*X312500D01*
X311500Y68984D02*X312500D01*
G54D45*X310898Y70953D02*X313197D01*
X310898Y72921D02*X313197D01*
X310898Y74890D02*X313197D01*
G54D46*X311500Y70953D02*X312500D01*
X311500Y72921D02*X312500D01*
X311500Y74890D02*X312500D01*
G54D47*X189000Y209000D03*
Y214000D03*
Y219000D03*
X187500Y84000D03*
X174000Y209000D03*
X149500Y73900D03*
Y78900D03*
X144500D03*
X149500Y83900D03*
X144500D03*
Y73900D03*
X178500Y84000D03*
X174000D03*
X165000D03*
X180000Y27600D03*
Y22600D03*
Y17600D03*
X175000Y27600D03*
Y22600D03*
Y17600D03*
X119000Y27600D03*
X157000D03*
X162000D03*
X119000Y22600D03*
X157000D03*
X162000D03*
X119000Y17600D03*
X114000D03*
X96000D03*
X101000D03*
X157000D03*
X162000D03*
X114000Y27600D03*
X96000D03*
X101000D03*
X114000Y22600D03*
X96000D03*
X101000D03*
X184000Y219000D03*
Y214000D03*
Y209000D03*
X179000D03*
Y214000D03*
Y219000D03*
X174000D03*
X169000D03*
X164000D03*
X156500D03*
X174000Y214000D03*
X169000D03*
X164000D03*
X156500D03*
X169000Y209000D03*
X164000D03*
X156500D03*
X151500D03*
X146500D03*
X151500Y214000D03*
X146500D03*
X151500Y219000D03*
X146500D03*
X123500D03*
X128500D03*
X133500D03*
X123500Y214000D03*
X128500D03*
X133500D03*
X123500Y209000D03*
X128500D03*
X133500D03*
X88500Y73900D03*
X83500D03*
X65500D03*
X70500D03*
X126500D03*
X131500D03*
X88500Y78900D03*
X83500D03*
X65500D03*
X70500D03*
X126500D03*
X131500D03*
X88500Y83900D03*
X83500D03*
X65500D03*
X70500D03*
X126500D03*
X131500D03*
X236500Y194500D03*
X218000Y155500D03*
X236500Y201500D03*
Y208500D03*
Y212000D03*
X206000Y229500D03*
X201000D03*
X214000Y216500D03*
Y220000D03*
X211500Y140500D03*
Y154500D03*
X236500Y198000D03*
X242500Y124500D03*
Y128500D03*
X240500Y186500D03*
X239500Y155500D03*
X240500Y177500D03*
X246000Y190000D03*
X255000D03*
X256000Y143000D03*
X236500Y215500D03*
X274000Y225000D03*
X283000D03*
X278500D03*
X255000Y206000D03*
X274000Y199000D03*
X283000D03*
X290000Y210000D03*
X278500Y199000D03*
X246000Y206000D03*
X250500D03*
X293500Y171500D03*
X298500Y182500D03*
X295500Y179500D03*
X296400Y169500D03*
X287500Y171000D03*
X293500Y199000D03*
Y202500D03*
X279000Y161000D03*
X266500Y150453D03*
X273000Y143500D03*
Y153500D03*
X282500Y165500D03*
X274500Y129500D03*
X258000Y159500D03*
Y163000D03*
X261500Y159500D03*
Y163000D03*
X258000Y167000D03*
Y170500D03*
X261500Y167000D03*
Y170500D03*
X259500Y143000D03*
Y146500D03*
X263000Y143000D03*
Y146500D03*
X236500Y100500D03*
Y97000D03*
Y93500D03*
Y86500D03*
Y83000D03*
Y79500D03*
X272000Y98500D03*
X276000D03*
X280000D03*
X277000Y116500D03*
X273500D03*
X262000Y90500D03*
X257500Y112500D03*
X265000Y93500D03*
X271500Y78000D03*
X268000Y72500D03*
X254500Y30500D03*
X225500Y27000D03*
X287000Y102000D03*
Y93500D03*
X288500Y77500D03*
X287500Y74000D03*
X291500Y102000D03*
Y90500D03*
X288500Y67500D03*
X292000Y55000D03*
Y51000D03*
X284000Y54500D03*
Y63500D03*
Y72500D03*
X334000Y139000D03*
X335500Y145500D03*
X329000Y151500D03*
X333500D03*
X336000Y154000D03*
X356500Y157500D03*
X308000Y169500D03*
X306000Y166500D03*
X323500Y177500D03*
X311500D03*
X354000Y130500D03*
X350500D03*
X352000Y148500D03*
X358000Y121500D03*
X372500Y166500D03*
X321500Y127000D03*
X325500D03*
X329000Y131600D03*
X309500Y93500D03*
X318500Y77500D03*
X336500Y88500D03*
X336457Y61500D03*
X336500Y93000D03*
X369224Y70957D03*
X369500Y21457D03*
Y17957D03*
X317000Y57500D03*
X364500Y47000D03*
X378500Y54874D03*
X360000Y47000D03*
X338000Y46000D03*
X340000Y39126D03*
Y32000D03*
Y22000D03*
X355500Y47000D03*
X369000Y92500D03*
X362500D03*
X354500Y103500D03*
X351000D03*
X309500Y102000D03*
X328500Y98500D03*
X324500D03*
X320500D03*
X305000Y102000D03*
X300500Y98000D03*
Y101000D03*
X305000Y93500D03*
X303500Y68000D03*
Y71500D03*
Y64500D03*
X328000Y88500D03*
X319500Y74000D03*
X319000Y65047D03*
X356500Y185500D03*
X372500D03*
X376000D03*
X381000Y203500D03*
X384500D03*
X355000Y253500D03*
Y244500D03*
X367500Y237000D03*
Y261000D03*
X375500Y269000D03*
Y229000D03*
X371500Y140500D03*
X368500Y145500D03*
X363500Y155500D03*
X332500Y127000D03*
X326500Y162500D03*
X317500Y169500D03*
X323000Y168000D03*
X326000Y171000D03*
X340500Y203500D03*
X323000Y197500D03*
X327000D03*
X331043Y214000D03*
X311000Y208000D03*
X310500Y197500D03*
X315000D03*
X306000D03*
X309500Y180500D03*
X304000Y236000D03*
Y232000D03*
G54D48*G54D49*G54D50*G54D51*G54D50*G54D51*G54D52*G54D53*G54D52*G54D53*G54D15*G54D54*G54D15*G54D55*G54D54*M02*
