G04 start of page 9 for group -4063 idx -4063 *
G04 Title: (unknown), componentmask *
G04 Creator: pcb 20140316 *
G04 CreationDate: Sun 30 Dec 2018 07:41:08 PM GMT UTC *
G04 For: railfan *
G04 Format: Gerber/RS-274X *
G04 PCB-Dimensions (mil): 4000.00 2950.00 *
G04 PCB-Coordinate-Origin: lower left *
%MOIN*%
%FSLAX25Y25*%
%LNTOPMASK*%
%ADD152R,0.0180X0.0180*%
%ADD151R,0.0560X0.0560*%
%ADD150C,0.0370*%
%ADD149R,0.0532X0.0532*%
%ADD148R,0.0296X0.0296*%
%ADD147R,0.0217X0.0217*%
%ADD146R,0.1477X0.1477*%
%ADD145R,0.1300X0.1300*%
%ADD144R,0.0847X0.0847*%
%ADD143R,0.0158X0.0158*%
%ADD142R,0.0420X0.0420*%
%ADD141R,0.2140X0.2140*%
%ADD140R,0.0490X0.0490*%
%ADD139R,0.2160X0.2160*%
%ADD138R,0.1476X0.1476*%
%ADD137R,0.0769X0.0769*%
%ADD136R,0.0236X0.0236*%
%ADD135R,0.0572X0.0572*%
%ADD134R,0.0020X0.0020*%
%ADD133R,0.0197X0.0197*%
%ADD132C,0.1025*%
%ADD131C,0.1035*%
%ADD130C,0.0490*%
%ADD129C,0.0760*%
%ADD128C,0.0860*%
%ADD127C,0.1500*%
%ADD126C,0.2997*%
%ADD125C,0.2197*%
%ADD124C,0.0960*%
%ADD123C,0.0001*%
%ADD122C,0.0890*%
G54D122*X94400Y265000D03*
X81000D03*
X94400Y226000D03*
X81000D03*
G54D123*G36*
X34200Y231300D02*Y221700D01*
X43800D01*
Y231300D01*
X34200D01*
G37*
G54D124*X39000Y206500D03*
G54D125*X45000Y262500D03*
G54D123*G36*
X34200Y113300D02*Y103700D01*
X43800D01*
Y113300D01*
X34200D01*
G37*
G54D124*X39000Y186500D03*
Y88500D03*
Y68500D03*
G54D125*X45000Y32500D03*
G54D126*X285000D03*
Y262500D03*
G54D123*G36*
X246200Y266300D02*Y257700D01*
X254800D01*
Y266300D01*
X246200D01*
G37*
G54D127*X260500Y274500D03*
G54D128*X230500Y262000D03*
G54D127*X220500Y274500D03*
G54D129*X253000Y239500D03*
G54D130*X250000Y34500D03*
Y26500D03*
G54D129*X248000Y249500D03*
X238000D03*
X228000D03*
X243000Y239500D03*
X233000D03*
G54D131*X230000Y40500D03*
X242500D03*
G54D132*Y20500D03*
G54D131*X230000D03*
G54D130*Y30500D03*
G54D133*X218228Y160000D02*X219606D01*
X218228Y165000D02*X219606D01*
G54D134*X218228Y160000D02*X219606D01*
X218228Y165000D02*X219606D01*
X218248D02*X219626D01*
X218248Y160000D02*X219626D01*
G54D133*X218228Y170000D02*X219606D01*
X218228Y175000D02*X219606D01*
G54D134*X218228Y170000D02*X219606D01*
X218248D02*X219626D01*
X218248Y175000D02*X219626D01*
X218228D02*X219606D01*
G54D135*X219595Y214755D02*Y209245D01*
Y200755D02*Y195245D01*
G54D136*X196000Y209409D02*Y208622D01*
G54D134*Y209429D02*Y208445D01*
G54D136*X201000Y209409D02*Y208622D01*
X206000Y209409D02*Y208622D01*
X211000Y209409D02*Y208622D01*
G54D134*X201000Y209429D02*Y208445D01*
X206000Y209429D02*Y208445D01*
X211000Y209429D02*Y208445D01*
G54D123*G36*
X203394Y206858D02*Y199953D01*
X210299D01*
Y206858D01*
X203394D01*
G37*
G54D137*X200744Y218476D02*X206256D01*
X200744Y240524D02*X206256D01*
G54D138*X202201Y200059D02*X204799D01*
G54D134*X203500Y201909D02*Y201358D01*
G54D123*G36*
X196701Y206858D02*Y199953D01*
X203606D01*
Y206858D01*
X196701D01*
G37*
G36*
Y200165D02*Y193260D01*
X203606D01*
Y200165D01*
X196701D01*
G37*
G36*
X203394D02*Y193260D01*
X210299D01*
Y200165D01*
X203394D01*
G37*
G54D133*X196000Y186772D02*Y185394D01*
X201000Y186772D02*Y185394D01*
G54D134*X196000Y186772D02*Y185394D01*
X201000Y186772D02*Y185394D01*
Y186752D02*Y185374D01*
X196000Y186752D02*Y185374D01*
G54D133*X206000Y186772D02*Y185394D01*
X211000Y186772D02*Y185394D01*
G54D134*X206000Y186772D02*Y185394D01*
Y186752D02*Y185374D01*
X211000Y186752D02*Y185374D01*
Y186772D02*Y185394D01*
G54D135*X231405Y214755D02*Y209245D01*
Y200755D02*Y195245D01*
X228957Y186893D02*Y186107D01*
G54D137*X230476Y167756D02*Y162244D01*
G54D135*X236043Y186893D02*Y186107D01*
Y177893D02*Y177107D01*
X228957Y177893D02*Y177107D01*
X245607Y178457D02*X246393D01*
X245607Y185543D02*X246393D01*
X245607Y194457D02*X246393D01*
X254607D02*X255393D01*
X245607Y201543D02*X246393D01*
X254607D02*X255393D01*
X254607Y178457D02*X255393D01*
X254607Y185543D02*X255393D01*
G54D137*X252524Y167756D02*Y162244D01*
G54D135*X282607Y187457D02*X283393D01*
X282607Y194543D02*X283393D01*
X273607D02*X274393D01*
X273607Y187457D02*X274393D01*
X274957Y205393D02*Y204607D01*
X282043Y205393D02*Y204607D01*
X273607Y213457D02*X274393D01*
X273607Y220543D02*X274393D01*
X298957Y212393D02*Y211607D01*
X306043Y212393D02*Y211607D01*
X315543Y225393D02*Y224607D01*
X308457Y225393D02*Y224607D01*
X306043Y203393D02*Y202607D01*
X298957Y203393D02*Y202607D01*
X314607Y192543D02*X315393D01*
X305607D02*X306393D01*
X305607Y185457D02*X306393D01*
X294107Y187457D02*X294893D01*
X294107Y194543D02*X294893D01*
X315543Y234393D02*Y233607D01*
X308457Y234393D02*Y233607D01*
X299543Y225393D02*Y224607D01*
X292457Y225393D02*Y224607D01*
X299543Y234393D02*Y233607D01*
X292457Y234393D02*Y233607D01*
X282607Y213457D02*X283393D01*
X282607Y220543D02*X283393D01*
X284043Y231893D02*Y231107D01*
X276957Y231893D02*Y231107D01*
G54D139*X175300Y127500D02*X176300D01*
G54D123*G36*
X204835Y127606D02*Y120701D01*
X211740D01*
Y127606D01*
X204835D01*
G37*
G36*
Y134299D02*Y127394D01*
X211740D01*
Y134299D01*
X204835D01*
G37*
G36*
X198142D02*Y127394D01*
X205047D01*
Y134299D01*
X198142D01*
G37*
G54D139*X175300Y167500D02*X176300D01*
G54D140*X140000Y250200D02*Y240800D01*
Y218400D02*Y208900D01*
G54D135*X170245Y239405D02*X175755D01*
X170245Y227595D02*X175755D01*
X183745D02*X189255D01*
X183745Y239405D02*X189255D01*
G54D136*X195591Y160000D02*X196378D01*
G54D134*X195571D02*X196555D01*
G54D136*X195591Y165000D02*X196378D01*
G54D134*X195571D02*X196555D01*
G54D136*X195591Y170000D02*X196378D01*
G54D134*X195571D02*X196555D01*
G54D136*X195591Y175000D02*X196378D01*
G54D134*X195571D02*X196555D01*
G54D138*X204941Y168799D02*Y166201D01*
G54D134*X203091Y167500D02*X203642D01*
G54D123*G36*
X198142Y167606D02*Y160701D01*
X205047D01*
Y167606D01*
X198142D01*
G37*
G36*
X204835D02*Y160701D01*
X211740D01*
Y167606D01*
X204835D01*
G37*
G36*
Y174299D02*Y167394D01*
X211740D01*
Y174299D01*
X204835D01*
G37*
G36*
X198142D02*Y167394D01*
X205047D01*
Y174299D01*
X198142D01*
G37*
G54D141*X88900Y149600D02*Y145400D01*
G54D140*X107500Y53000D02*Y44000D01*
X138000Y83100D02*Y74000D01*
X77000Y57500D02*Y48500D01*
Y83100D02*Y74000D01*
X107500Y27500D02*Y18400D01*
X168500Y53000D02*Y44000D01*
Y27500D02*Y18400D01*
X138000Y57500D02*Y48500D01*
G54D135*X180245Y67095D02*X185755D01*
X180245Y78905D02*X185755D01*
X166745Y67095D02*X172255D01*
X166745Y78905D02*X172255D01*
G54D133*X211000Y109606D02*Y108228D01*
X206000Y109606D02*Y108228D01*
G54D134*X211000Y109606D02*Y108228D01*
X206000Y109606D02*Y108228D01*
Y109626D02*Y108248D01*
X211000Y109626D02*Y108248D01*
G54D133*X201000Y109606D02*Y108228D01*
X196000Y109606D02*Y108228D01*
G54D134*X201000Y109606D02*Y108228D01*
Y109626D02*Y108248D01*
X196000Y109626D02*Y108248D01*
Y109606D02*Y108228D01*
G54D137*X200744Y54476D02*X206256D01*
X200744Y76524D02*X206256D01*
G54D136*X211000Y86378D02*Y85591D01*
X206000Y86378D02*Y85591D01*
G54D134*X211000Y86555D02*Y85571D01*
X206000Y86555D02*Y85571D01*
G54D138*X202201Y94941D02*X204799D01*
G54D123*G36*
X203394Y95047D02*Y88142D01*
X210299D01*
Y95047D01*
X203394D01*
G37*
G36*
Y101740D02*Y94835D01*
X210299D01*
Y101740D01*
X203394D01*
G37*
G36*
X196701D02*Y94835D01*
X203606D01*
Y101740D01*
X196701D01*
G37*
G36*
Y95047D02*Y88142D01*
X203606D01*
Y95047D01*
X196701D01*
G37*
G54D134*X203500Y93642D02*Y93091D01*
X196000Y86555D02*Y85571D01*
G54D136*X201000Y86378D02*Y85591D01*
X196000Y86378D02*Y85591D01*
G54D134*X201000Y86555D02*Y85571D01*
G54D135*X231405Y85755D02*Y80245D01*
Y99755D02*Y94245D01*
X231043Y110393D02*Y109607D01*
X219595Y99755D02*Y94245D01*
G54D136*X195591Y120000D02*X196378D01*
G54D134*X195571D02*X196555D01*
G54D136*X195591Y125000D02*X196378D01*
G54D134*X195571D02*X196555D01*
G54D136*X195591Y130000D02*X196378D01*
X195591Y135000D02*X196378D01*
G54D134*X195571Y130000D02*X196555D01*
X195571Y135000D02*X196555D01*
G54D138*X204941Y128799D02*Y126201D01*
G54D134*X203091Y127500D02*X203642D01*
G54D123*G36*
X198142Y127606D02*Y120701D01*
X205047D01*
Y127606D01*
X198142D01*
G37*
G54D133*X218228Y120000D02*X219606D01*
G54D134*X218228D02*X219606D01*
X218248D02*X219626D01*
G54D135*X219595Y85755D02*Y80245D01*
G54D133*X218228Y125000D02*X219606D01*
G54D134*X218228D02*X219606D01*
X218248D02*X219626D01*
G54D133*X218228Y130000D02*X219606D01*
X218228Y135000D02*X219606D01*
G54D134*X218228Y130000D02*X219606D01*
X218228Y135000D02*X219606D01*
X218248Y130000D02*X219626D01*
X218248Y135000D02*X219626D01*
G54D135*X217607Y143957D02*X218393D01*
X217607Y151043D02*X218393D01*
X223957Y110393D02*Y109607D01*
G54D142*X240000Y133600D02*Y132400D01*
Y120600D02*Y119400D01*
X252900Y133600D02*Y132400D01*
Y120600D02*Y119400D01*
G54D135*X262607Y130457D02*X263393D01*
X262607Y137543D02*X263393D01*
X250107Y150043D02*X250893D01*
X250107Y142957D02*X250893D01*
X241107Y150043D02*X241893D01*
X241107Y142957D02*X241893D01*
X262607Y115500D02*X263393D01*
X262607Y122586D02*X263393D01*
X272245Y121405D02*X277755D01*
X272245Y109595D02*X277755D01*
X313607Y113543D02*X314393D01*
X304607D02*X305393D01*
X313043Y122393D02*Y121607D01*
X305957Y122393D02*Y121607D01*
X313607Y106457D02*X314393D01*
X304607D02*X305393D01*
X295607D02*X296393D01*
X286607D02*X287393D01*
X295607Y113543D02*X296393D01*
X286607D02*X287393D01*
X295043Y122393D02*Y121607D01*
X287957Y122393D02*Y121607D01*
X322745Y121405D02*X328255D01*
X322745Y109595D02*X328255D01*
G54D143*X310890Y161772D02*Y155669D01*
X308921Y161772D02*Y155669D01*
X306953Y161772D02*Y155669D01*
X304984Y161772D02*Y155669D01*
X303016Y161772D02*Y155669D01*
X301047Y161772D02*Y160000D01*
X299079Y161772D02*Y160000D01*
X297110Y161772D02*Y160000D01*
X295142Y161772D02*Y160000D01*
X293173Y161772D02*Y160000D01*
X291205Y161772D02*Y160000D01*
X289236Y161772D02*Y160000D01*
X287268Y161772D02*Y160000D01*
X285299Y161772D02*Y160000D01*
X281854Y158327D02*X283626D01*
X281854Y156358D02*X283626D01*
X281854Y154390D02*X283626D01*
X281854Y152421D02*X283626D01*
X281854Y150453D02*X283626D01*
X281854Y146516D02*X283626D01*
X281854Y144547D02*X283626D01*
X281854Y142579D02*X283626D01*
X281854Y138642D02*X283626D01*
X281854Y136673D02*X283626D01*
X285299Y135000D02*Y133228D01*
X289236Y135000D02*Y133228D01*
X291205Y135000D02*Y133228D01*
X293173Y135000D02*Y133228D01*
X295142Y135000D02*Y133228D01*
X299079Y135000D02*Y133228D01*
X301047Y135000D02*Y133228D01*
X303016Y138150D02*Y133228D01*
X306953Y138150D02*Y133228D01*
X308921Y138150D02*Y133228D01*
X310890Y138150D02*Y133228D01*
X314827Y139331D02*Y133228D01*
G54D144*X293173Y147500D02*X314827D01*
G54D145*X291736D02*X316264D01*
G54D146*X292622Y148386D02*X293528D01*
G54D135*X340457Y144393D02*Y143607D01*
X347543Y144393D02*Y143607D01*
X340457Y135393D02*Y134607D01*
X347543Y135393D02*Y134607D01*
Y153393D02*Y152607D01*
X340457Y153393D02*Y152607D01*
X344957Y162393D02*Y161607D01*
X341957Y117393D02*Y116607D01*
Y126393D02*Y125607D01*
X349043Y117393D02*Y116607D01*
Y126393D02*Y125607D01*
X347043Y108393D02*Y107607D01*
Y99393D02*Y98607D01*
X339957Y108393D02*Y107607D01*
Y99393D02*Y98607D01*
X352043Y162393D02*Y161607D01*
Y181393D02*Y180607D01*
X344957Y181393D02*Y180607D01*
X360457Y162393D02*Y161607D01*
X360957Y190393D02*Y189607D01*
Y181393D02*Y180607D01*
X360457Y171393D02*Y170607D01*
X367543Y171393D02*Y170607D01*
X344957Y171393D02*Y170607D01*
X352043Y171393D02*Y170607D01*
Y190393D02*Y189607D01*
X344957Y190393D02*Y189607D01*
X352043Y208393D02*Y207607D01*
X344957Y208393D02*Y207607D01*
X352043Y199393D02*Y198607D01*
X344957Y199393D02*Y198607D01*
G54D143*X322701Y161772D02*Y160000D01*
X320732Y161772D02*Y155669D01*
X318764Y161772D02*Y155669D01*
X316795Y161772D02*Y155669D01*
X314827Y161772D02*Y155669D01*
X312858Y161772D02*Y155669D01*
G54D135*X314607Y185457D02*X315393D01*
X323607D02*X324393D01*
X323607Y192543D02*X324393D01*
X323607Y202457D02*X324393D01*
X323607Y209543D02*X324393D01*
X331043Y219393D02*Y218607D01*
X323957Y219393D02*Y218607D01*
X367543Y162393D02*Y161607D01*
X368043Y190393D02*Y189607D01*
Y181393D02*Y180607D01*
X369957Y208393D02*Y207607D01*
X377043Y208393D02*Y207607D01*
Y199393D02*Y198607D01*
X369957Y199393D02*Y198607D01*
X375107Y233957D02*X375893D01*
X375107Y241043D02*X375893D01*
X360607Y199957D02*X361393D01*
X360607Y207043D02*X361393D01*
X359957Y266893D02*Y266107D01*
Y231893D02*Y231107D01*
Y244893D02*Y244107D01*
Y253893D02*Y253107D01*
X367043Y266893D02*Y266107D01*
Y231893D02*Y231107D01*
Y244893D02*Y244107D01*
Y253893D02*Y253107D01*
X375107Y264043D02*X375893D01*
X375107Y256957D02*X375893D01*
G54D147*X375523Y67992D02*Y63566D01*
X372374Y67992D02*Y63566D01*
X369224Y67992D02*Y63566D01*
X366075Y67992D02*Y63566D01*
X362925Y67992D02*Y63566D01*
X359775Y67992D02*Y63566D01*
X356626Y67992D02*Y63566D01*
G54D135*X361457Y76350D02*Y75564D01*
X368543Y76350D02*Y75564D01*
G54D148*X367630Y96594D02*X371370D01*
X367630Y100531D02*X371370D01*
X367630Y104469D02*X371370D01*
X367630Y108406D02*X371370D01*
G54D143*X316795Y139331D02*Y133228D01*
X318764Y139331D02*Y133228D01*
X320732Y139331D02*Y133228D01*
X322701Y135000D02*Y133228D01*
X324374Y136673D02*X326146D01*
X324374Y138642D02*X326146D01*
X324374Y140610D02*X326146D01*
X324374Y142579D02*X326146D01*
G54D135*X323929Y83661D02*Y80906D01*
Y69094D02*Y66339D01*
G54D143*X324374Y144547D02*X326146D01*
X324374Y146516D02*X326146D01*
X324374Y148484D02*X326146D01*
X324374Y150453D02*X326146D01*
X324374Y152421D02*X326146D01*
X324374Y154390D02*X326146D01*
X324374Y156358D02*X326146D01*
X324374Y158327D02*X326146D01*
G54D147*X362925Y30434D02*Y26008D01*
X366075Y30434D02*Y26008D01*
X369225Y30434D02*Y26008D01*
X372374Y30434D02*Y26008D01*
X375524Y30434D02*Y26008D01*
X381066Y35977D02*X385492D01*
X381066Y39126D02*X385492D01*
X381066Y42276D02*X385492D01*
X381066Y45425D02*X385492D01*
X381066Y48575D02*X385492D01*
X381066Y51725D02*X385492D01*
X381066Y54874D02*X385492D01*
X381066Y58024D02*X385492D01*
G54D149*X383575Y91476D02*X385937D01*
X383575Y113524D02*X385937D01*
G54D150*X235000Y28000D03*
Y33000D03*
X240000Y28000D03*
Y33000D03*
X245000Y28000D03*
Y33000D03*
G54D135*X341607Y71543D02*X342393D01*
X341607Y64457D02*X342393D01*
X332985Y69094D02*Y66339D01*
X341607Y78457D02*X342393D01*
X341607Y85543D02*X342393D01*
X332985Y83661D02*Y80906D01*
G54D147*X353476Y67992D02*Y63566D01*
X343508Y58023D02*X347934D01*
X343508Y54874D02*X347934D01*
X343508Y51724D02*X347934D01*
X343508Y48575D02*X347934D01*
X343508Y45425D02*X347934D01*
X343508Y42275D02*X347934D01*
X343508Y39126D02*X347934D01*
X343508Y35976D02*X347934D01*
X353477Y30434D02*Y26008D01*
X356626Y30434D02*Y26008D01*
X359776Y30434D02*Y26008D01*
G54D135*X357957Y19350D02*Y18564D01*
X365043Y19350D02*Y18564D01*
G54D151*X307016Y42000D02*X316504D01*
X307016Y32000D02*X316504D01*
X307016Y22000D02*X316504D01*
X324496D02*X333984D01*
X324496Y32000D02*X333984D01*
X324496Y42000D02*X333984D01*
G54D135*X296457Y53393D02*Y52607D01*
X303543Y53393D02*Y52607D01*
G54D152*X293803Y65047D02*X296102D01*
X293803Y63079D02*X296102D01*
X293803Y61110D02*X296102D01*
X294500Y65047D02*X295500D01*
X294500Y63079D02*X295500D01*
X294500Y61110D02*X295500D01*
X293803Y74890D02*X296102D01*
X294500D02*X295500D01*
X293803Y72921D02*X296102D01*
X294500D02*X295500D01*
X293803Y70953D02*X296102D01*
X294500D02*X295500D01*
X293803Y68984D02*X296102D01*
X293803Y67016D02*X296102D01*
X294500Y68984D02*X295500D01*
X294500Y67016D02*X295500D01*
G54D135*X272457Y72893D02*Y72107D01*
Y63893D02*Y63107D01*
Y54893D02*Y54107D01*
X279543Y72893D02*Y72107D01*
Y63893D02*Y63107D01*
Y54893D02*Y54107D01*
G54D152*X310898Y61110D02*X313197D01*
X311500D02*X312500D01*
X310898Y63079D02*X313197D01*
X311500D02*X312500D01*
X310898Y65047D02*X313197D01*
X311500D02*X312500D01*
X310898Y67016D02*X313197D01*
X310898Y68984D02*X313197D01*
X311500Y67016D02*X312500D01*
X311500Y68984D02*X312500D01*
X310898Y70953D02*X313197D01*
X310898Y72921D02*X313197D01*
X310898Y74890D02*X313197D01*
X311500Y70953D02*X312500D01*
X311500Y72921D02*X312500D01*
X311500Y74890D02*X312500D01*
M02*
